<?xml version="1.0" encoding="UTF-8" standalone="no"?><svg xmlns="http://www.w3.org/2000/svg" xmlns:xlink="http://www.w3.org/1999/xlink" contentStyleType="text/css" height="444px" preserveAspectRatio="none" style="width:815px;height:444px;background:#E6E6E6;" version="1.1" viewBox="0 0 815 444" width="815px" zoomAndPan="magnify"><defs/><g><!--MD5=[093bbd0a40517dd9436edbf70ee7869a]
class Ingredients--><g id="elem_Ingredients"><rect codeLine="21" fill="#FFFFFF" height="188.875" id="Ingredients" rx="2.5" ry="2.5" style="stroke:#2688D4;stroke-width:0.5;" width="230.3333" x="297" y="248.5"/><ellipse cx="372.9167" cy="264.5" fill="#FFFFFF" rx="11" ry="11" style="stroke:#181818;stroke-width:1.0;"/><path d="M373.8385,261.8906 L373.8385,268.5469 L374.9948,268.5469 Q375.6042,268.5469 375.862,268.7813 Q376.1198,269.0156 376.1198,269.4063 Q376.1198,269.7813 375.862,270.0156 Q375.6042,270.25 374.9948,270.25 L371.0104,270.25 Q370.3854,270.25 370.1276,270.0156 Q369.8698,269.7813 369.8698,269.3906 Q369.8698,269.0156 370.1276,268.7813 Q370.3854,268.5469 371.0104,268.5469 L372.1354,268.5469 L372.1354,261.8906 L370.2917,261.8906 L370.2917,263.5 Q370.2917,264.1094 370.0573,264.375 Q369.8229,264.6406 369.4479,264.6406 Q369.0729,264.6406 368.8385,264.375 Q368.6042,264.1094 368.6042,263.5 L368.6042,260.1875 L377.4167,260.1875 L377.4167,263.5 Q377.4167,264.1094 377.1745,264.375 Q376.9323,264.6406 376.5573,264.6406 Q376.1823,264.6406 375.9479,264.375 Q375.7135,264.1094 375.7135,263.5 L375.7135,261.8906 L373.8385,261.8906 Z " fill="#000000"/><text fill="#000000" font-family="sans-serif" font-size="14" lengthAdjust="spacing" textLength="70" x="393.4167" y="270.2285">Ingredients</text><line style="stroke:#2688D4;stroke-width:0.5;" x1="298" x2="526.3333" y1="280.5" y2="280.5"/><path d="M310.4167,289.276 C308.8067,289.276 307.5,290.5827 307.5,292.1927 C307.5,292.3794 307.5,292.566 307.535,292.741 L304,296.276 L304,298.6094 L307.5,298.6094 L307.5,296.276 L309.8333,296.276 L309.8333,295.1094 L309.8683,295.0744 C310.0433,295.1094 310.23,295.1094 310.4167,295.1094 C312.0267,295.1094 313.3333,293.8027 313.3333,292.1927 C313.3333,290.5827 312.0267,289.276 310.4167,289.276 M311,290.4427 C311.6417,290.4427 312.1667,290.9677 312.1667,291.6094 C312.1667,292.251 311.6417,292.776 311,292.776 C310.3583,292.776 309.8333,292.251 309.8333,291.6094 C309.8333,290.9677 310.3583,290.4427 311,290.4427 " fill="#B8861B" style="stroke:;stroke-width:0.0;stroke-dasharray:;"/><text fill="#000000" font-family="sans-serif" font-size="14" font-weight="bold" lengthAdjust="spacing" textLength="14" x="318.3333" y="299.0332">ID</text><text fill="#000000" font-family="sans-serif" font-size="14" lengthAdjust="spacing" textLength="189" x="332.3333" y="299.0332">: INTEGER AUTOINCREMENT</text><path d="M307.5,306.8854 C305.5633,306.8854 304,308.4488 304,310.3854 C304,312.3221 305.5633,313.8854 307.5,313.8854 C309.4367,313.8854 311,312.3221 311,310.3854 C311,308.4488 309.4367,306.8854 307.5,306.8854 " fill="#000000" style="stroke:;stroke-width:0.0;stroke-dasharray:;"/><text fill="#000000" font-family="sans-serif" font-size="14" lengthAdjust="spacing" textLength="79" x="318.3333" y="316.6426">Name: TEXT</text><path d="M307.5,324.4948 C305.5633,324.4948 304,326.0581 304,327.9948 C304,329.9315 305.5633,331.4948 307.5,331.4948 C309.4367,331.4948 311,329.9315 311,327.9948 C311,326.0581 309.4367,324.4948 307.5,324.4948 " fill="#000000" style="stroke:;stroke-width:0.0;stroke-dasharray:;"/><text fill="#000000" font-family="sans-serif" font-size="14" lengthAdjust="spacing" textLength="114" x="318.3333" y="334.252">Alcohol: INTEGER</text><path d="M307.5,342.1042 C305.5633,342.1042 304,343.6675 304,345.6042 C304,347.5408 305.5633,349.1042 307.5,349.1042 C309.4367,349.1042 311,347.5408 311,345.6042 C311,343.6675 309.4367,342.1042 307.5,342.1042 " fill="#000000" style="stroke:;stroke-width:0.0;stroke-dasharray:;"/><text fill="#000000" font-family="sans-serif" font-size="14" lengthAdjust="spacing" textLength="115" x="318.3333" y="351.8613">Volume: INTEGER</text><path d="M307.5,359.7135 C305.5633,359.7135 304,361.2769 304,363.2135 C304,365.1502 305.5633,366.7135 307.5,366.7135 C309.4367,366.7135 311,365.1502 311,363.2135 C311,361.2769 309.4367,359.7135 307.5,359.7135 " fill="#EFEFEF" style="stroke:;stroke-width:0.0;stroke-dasharray:;"/><text fill="#000000" font-family="sans-serif" font-size="14" lengthAdjust="spacing" textLength="203" x="318.3333" y="369.4707">Consumption_lifetime: INTEGER</text><path d="M307.5,377.3229 C305.5633,377.3229 304,378.8862 304,380.8229 C304,382.7596 305.5633,384.3229 307.5,384.3229 C309.4367,384.3229 311,382.7596 311,380.8229 C311,378.8862 309.4367,377.3229 307.5,377.3229 " fill="#EFEFEF" style="stroke:;stroke-width:0.0;stroke-dasharray:;"/><text fill="#000000" font-family="sans-serif" font-size="14" lengthAdjust="spacing" textLength="151" x="318.3333" y="387.0801">Consumption: INTEGER</text><path d="M307.5,394.9323 C305.5633,394.9323 304,396.4956 304,398.4323 C304,400.369 305.5633,401.9323 307.5,401.9323 C309.4367,401.9323 311,400.369 311,398.4323 C311,396.4956 309.4367,394.9323 307.5,394.9323 " fill="#EFEFEF" style="stroke:;stroke-width:0.0;stroke-dasharray:;"/><text fill="#000000" font-family="sans-serif" font-size="14" lengthAdjust="spacing" textLength="123" x="318.3333" y="404.6895">Fill_level: INTEGER</text><path d="M307.5,412.5417 C305.5633,412.5417 304,414.105 304,416.0417 C304,417.9783 305.5633,419.5417 307.5,419.5417 C309.4367,419.5417 311,417.9783 311,416.0417 C311,414.105 309.4367,412.5417 307.5,412.5417 " fill="#EFEFEF" style="stroke:;stroke-width:0.0;stroke-dasharray:;"/><text fill="#000000" font-family="sans-serif" font-size="14" lengthAdjust="spacing" textLength="101" x="318.3333" y="422.2988">Hand: INTEGER</text><line style="stroke:#2688D4;stroke-width:0.5;" x1="298" x2="526.3333" y1="429.375" y2="429.375"/></g><!--MD5=[b7656c1c561edf5714384b90510e3d3b]
class Recipes--><g id="elem_Recipes"><rect codeLine="32" fill="#FFFFFF" height="206.4844" id="Recipes" rx="2.5" ry="2.5" style="stroke:#2688D4;stroke-width:0.5;" width="230.3333" x="297" y="7"/><ellipse cx="382.4167" cy="23" fill="#FFFFFF" rx="11" ry="11" style="stroke:#181818;stroke-width:1.0;"/><path d="M383.3385,20.3906 L383.3385,27.0469 L384.4948,27.0469 Q385.1042,27.0469 385.362,27.2813 Q385.6198,27.5156 385.6198,27.9063 Q385.6198,28.2813 385.362,28.5156 Q385.1042,28.75 384.4948,28.75 L380.5104,28.75 Q379.8854,28.75 379.6276,28.5156 Q379.3698,28.2813 379.3698,27.8906 Q379.3698,27.5156 379.6276,27.2813 Q379.8854,27.0469 380.5104,27.0469 L381.6354,27.0469 L381.6354,20.3906 L379.7917,20.3906 L379.7917,22 Q379.7917,22.6094 379.5573,22.875 Q379.3229,23.1406 378.9479,23.1406 Q378.5729,23.1406 378.3385,22.875 Q378.1042,22.6094 378.1042,22 L378.1042,18.6875 L386.9167,18.6875 L386.9167,22 Q386.9167,22.6094 386.6745,22.875 Q386.4323,23.1406 386.0573,23.1406 Q385.6823,23.1406 385.4479,22.875 Q385.2135,22.6094 385.2135,22 L385.2135,20.3906 L383.3385,20.3906 Z " fill="#000000"/><text fill="#000000" font-family="sans-serif" font-size="14" lengthAdjust="spacing" textLength="51" x="402.9167" y="28.7285">Recipes</text><line style="stroke:#2688D4;stroke-width:0.5;" x1="298" x2="526.3333" y1="39" y2="39"/><path d="M310.4167,47.776 C308.8067,47.776 307.5,49.0827 307.5,50.6927 C307.5,50.8794 307.5,51.066 307.535,51.241 L304,54.776 L304,57.1094 L307.5,57.1094 L307.5,54.776 L309.8333,54.776 L309.8333,53.6094 L309.8683,53.5744 C310.0433,53.6094 310.23,53.6094 310.4167,53.6094 C312.0267,53.6094 313.3333,52.3027 313.3333,50.6927 C313.3333,49.0827 312.0267,47.776 310.4167,47.776 M311,48.9427 C311.6417,48.9427 312.1667,49.4677 312.1667,50.1094 C312.1667,50.751 311.6417,51.276 311,51.276 C310.3583,51.276 309.8333,50.751 309.8333,50.1094 C309.8333,49.4677 310.3583,48.9427 311,48.9427 " fill="#B8861B" style="stroke:;stroke-width:0.0;stroke-dasharray:;"/><text fill="#000000" font-family="sans-serif" font-size="14" font-weight="bold" lengthAdjust="spacing" textLength="14" x="318.3333" y="57.5332">ID</text><text fill="#000000" font-family="sans-serif" font-size="14" lengthAdjust="spacing" textLength="189" x="332.3333" y="57.5332">: INTEGER AUTOINCREMENT</text><path d="M307.5,65.3854 C305.5633,65.3854 304,66.9487 304,68.8854 C304,70.8221 305.5633,72.3854 307.5,72.3854 C309.4367,72.3854 311,70.8221 311,68.8854 C311,66.9487 309.4367,65.3854 307.5,65.3854 " fill="#000000" style="stroke:;stroke-width:0.0;stroke-dasharray:;"/><text fill="#000000" font-family="sans-serif" font-size="14" lengthAdjust="spacing" textLength="79" x="318.3333" y="75.1426">Name: TEXT</text><path d="M307.5,82.9948 C305.5633,82.9948 304,84.5581 304,86.4948 C304,88.4315 305.5633,89.9948 307.5,89.9948 C309.4367,89.9948 311,88.4315 311,86.4948 C311,84.5581 309.4367,82.9948 307.5,82.9948 " fill="#000000" style="stroke:;stroke-width:0.0;stroke-dasharray:;"/><text fill="#000000" font-family="sans-serif" font-size="14" lengthAdjust="spacing" textLength="114" x="318.3333" y="92.752">Alcohol: INTEGER</text><path d="M307.5,100.6042 C305.5633,100.6042 304,102.1675 304,104.1042 C304,106.0408 305.5633,107.6042 307.5,107.6042 C309.4367,107.6042 311,106.0408 311,104.1042 C311,102.1675 309.4367,100.6042 307.5,100.6042 " fill="#000000" style="stroke:;stroke-width:0.0;stroke-dasharray:;"/><text fill="#000000" font-family="sans-serif" font-size="14" lengthAdjust="spacing" textLength="116" x="318.3333" y="110.3613">Amount: INTEGER</text><path d="M307.5,118.2135 C305.5633,118.2135 304,119.7769 304,121.7135 C304,123.6502 305.5633,125.2135 307.5,125.2135 C309.4367,125.2135 311,123.6502 311,121.7135 C311,119.7769 309.4367,118.2135 307.5,118.2135 " fill="#EFEFEF" style="stroke:;stroke-width:0.0;stroke-dasharray:;"/><text fill="#000000" font-family="sans-serif" font-size="14" lengthAdjust="spacing" textLength="103" x="318.3333" y="127.9707">Comment: TEXT</text><path d="M307.5,135.8229 C305.5633,135.8229 304,137.3863 304,139.3229 C304,141.2596 305.5633,142.8229 307.5,142.8229 C309.4367,142.8229 311,141.2596 311,139.3229 C311,137.3863 309.4367,135.8229 307.5,135.8229 " fill="#EFEFEF" style="stroke:;stroke-width:0.0;stroke-dasharray:;"/><text fill="#000000" font-family="sans-serif" font-size="14" lengthAdjust="spacing" textLength="171" x="318.3333" y="145.5801">Counter_lifetime: INTEGER</text><path d="M307.5,153.4323 C305.5633,153.4323 304,154.9956 304,156.9323 C304,158.869 305.5633,160.4323 307.5,160.4323 C309.4367,160.4323 311,158.869 311,156.9323 C311,154.9956 309.4367,153.4323 307.5,153.4323 " fill="#EFEFEF" style="stroke:;stroke-width:0.0;stroke-dasharray:;"/><text fill="#000000" font-family="sans-serif" font-size="14" lengthAdjust="spacing" textLength="119" x="318.3333" y="163.1895">Counter: INTEGER</text><path d="M307.5,171.0417 C305.5633,171.0417 304,172.605 304,174.5417 C304,176.4783 305.5633,178.0417 307.5,178.0417 C309.4367,178.0417 311,176.4783 311,174.5417 C311,172.605 309.4367,171.0417 307.5,171.0417 " fill="#EFEFEF" style="stroke:;stroke-width:0.0;stroke-dasharray:;"/><text fill="#000000" font-family="sans-serif" font-size="14" lengthAdjust="spacing" textLength="120" x="318.3333" y="180.7988">Enabled: INTEGER</text><path d="M307.5,188.651 C305.5633,188.651 304,190.2144 304,192.151 C304,194.0877 305.5633,195.651 307.5,195.651 C309.4367,195.651 311,194.0877 311,192.151 C311,190.2144 309.4367,188.651 307.5,188.651 " fill="#EFEFEF" style="stroke:;stroke-width:0.0;stroke-dasharray:;"/><text fill="#000000" font-family="sans-serif" font-size="14" lengthAdjust="spacing" textLength="165" x="318.3333" y="198.4082">Virgin: INTEGER Default 0</text><line style="stroke:#2688D4;stroke-width:0.5;" x1="298" x2="526.3333" y1="205.4844" y2="205.4844"/></g><!--MD5=[050b448e586012ab13fe1971771c053c]
class RecipeData--><g id="elem_RecipeData"><rect codeLine="44" fill="#FFFFFF" height="118.4375" id="RecipeData" rx="2.5" ry="2.5" style="stroke:#2688D4;stroke-width:0.5;" width="221.3333" x="587" y="168"/><ellipse cx="656.4167" cy="184" fill="#FFFFFF" rx="11" ry="11" style="stroke:#181818;stroke-width:1.0;"/><path d="M657.3385,181.3906 L657.3385,188.0469 L658.4948,188.0469 Q659.1042,188.0469 659.362,188.2813 Q659.6198,188.5156 659.6198,188.9063 Q659.6198,189.2813 659.362,189.5156 Q659.1042,189.75 658.4948,189.75 L654.5104,189.75 Q653.8854,189.75 653.6276,189.5156 Q653.3698,189.2813 653.3698,188.8906 Q653.3698,188.5156 653.6276,188.2813 Q653.8854,188.0469 654.5104,188.0469 L655.6354,188.0469 L655.6354,181.3906 L653.7917,181.3906 L653.7917,183 Q653.7917,183.6094 653.5573,183.875 Q653.3229,184.1406 652.9479,184.1406 Q652.5729,184.1406 652.3385,183.875 Q652.1042,183.6094 652.1042,183 L652.1042,179.6875 L660.9167,179.6875 L660.9167,183 Q660.9167,183.6094 660.6745,183.875 Q660.4323,184.1406 660.0573,184.1406 Q659.6823,184.1406 659.4479,183.875 Q659.2135,183.6094 659.2135,183 L659.2135,181.3906 L657.3385,181.3906 Z " fill="#000000"/><text fill="#000000" font-family="sans-serif" font-size="14" lengthAdjust="spacing" textLength="74" x="676.9167" y="189.7285">RecipeData</text><line style="stroke:#2688D4;stroke-width:0.5;" x1="588" x2="807.3333" y1="200" y2="200"/><path d="M600.4167,208.776 C598.8067,208.776 597.5,210.0827 597.5,211.6927 C597.5,211.8794 597.5,212.066 597.535,212.241 L594,215.776 L594,218.1094 L597.5,218.1094 L597.5,215.776 L599.8333,215.776 L599.8333,214.6094 L599.8683,214.5744 C600.0433,214.6094 600.23,214.6094 600.4167,214.6094 C602.0267,214.6094 603.3333,213.3027 603.3333,211.6927 C603.3333,210.0827 602.0267,208.776 600.4167,208.776 M601,209.9427 C601.6417,209.9427 602.1667,210.4677 602.1667,211.1094 C602.1667,211.751 601.6417,212.276 601,212.276 C600.3583,212.276 599.8333,211.751 599.8333,211.1094 C599.8333,210.4677 600.3583,209.9427 601,209.9427 " fill="#AAAAAA" style="stroke:;stroke-width:0.0;stroke-dasharray:;"/><text fill="#000000" font-family="sans-serif" font-size="14" lengthAdjust="spacing" textLength="171" x="608.3333" y="218.5332">Recipe_ID: INTEGER «FK»</text><path d="M600.4167,226.3854 C598.8067,226.3854 597.5,227.6921 597.5,229.3021 C597.5,229.4887 597.5,229.6754 597.535,229.8504 L594,233.3854 L594,235.7188 L597.5,235.7188 L597.5,233.3854 L599.8333,233.3854 L599.8333,232.2188 L599.8683,232.1838 C600.0433,232.2188 600.23,232.2188 600.4167,232.2188 C602.0267,232.2188 603.3333,230.9121 603.3333,229.3021 C603.3333,227.6921 602.0267,226.3854 600.4167,226.3854 M601,227.5521 C601.6417,227.5521 602.1667,228.0771 602.1667,228.7188 C602.1667,229.3604 601.6417,229.8854 601,229.8854 C600.3583,229.8854 599.8333,229.3604 599.8333,228.7188 C599.8333,228.0771 600.3583,227.5521 601,227.5521 " fill="#AAAAAA" style="stroke:;stroke-width:0.0;stroke-dasharray:;"/><text fill="#000000" font-family="sans-serif" font-size="14" lengthAdjust="spacing" textLength="194" x="608.3333" y="236.1426">Ingredient_ID: INTEGER  «FK»</text><path d="M597.5,243.9948 C595.5633,243.9948 594,245.5581 594,247.4948 C594,249.4315 595.5633,250.9948 597.5,250.9948 C599.4367,250.9948 601,249.4315 601,247.4948 C601,245.5581 599.4367,243.9948 597.5,243.9948 " fill="#000000" style="stroke:;stroke-width:0.0;stroke-dasharray:;"/><text fill="#000000" font-family="sans-serif" font-size="14" lengthAdjust="spacing" textLength="116" x="608.3333" y="253.752">Amount: INTEGER</text><path d="M597.5,261.6042 C595.5633,261.6042 594,263.1675 594,265.1042 C594,267.0408 595.5633,268.6042 597.5,268.6042 C599.4367,268.6042 601,267.0408 601,265.1042 C601,263.1675 599.4367,261.6042 597.5,261.6042 " fill="#EFEFEF" style="stroke:;stroke-width:0.0;stroke-dasharray:;"/><text fill="#000000" font-family="sans-serif" font-size="14" lengthAdjust="spacing" textLength="101" x="608.3333" y="271.3613">Hand: INTEGER</text><line style="stroke:#2688D4;stroke-width:0.5;" x1="588" x2="807.3333" y1="278.4375" y2="278.4375"/></g><!--MD5=[8c764f1023ba6897df25eaf4ba63518a]
class Bottles--><g id="elem_Bottles"><rect codeLine="51" fill="#FFFFFF" height="83.2188" id="Bottles" rx="2.5" ry="2.5" style="stroke:#2688D4;stroke-width:0.5;" width="146.3333" x="49" y="246.5"/><ellipse cx="96.4167" cy="262.5" fill="#FFFFFF" rx="11" ry="11" style="stroke:#181818;stroke-width:1.0;"/><path d="M97.3385,259.8906 L97.3385,266.5469 L98.4948,266.5469 Q99.1042,266.5469 99.362,266.7813 Q99.6198,267.0156 99.6198,267.4063 Q99.6198,267.7813 99.362,268.0156 Q99.1042,268.25 98.4948,268.25 L94.5104,268.25 Q93.8854,268.25 93.6276,268.0156 Q93.3698,267.7813 93.3698,267.3906 Q93.3698,267.0156 93.6276,266.7813 Q93.8854,266.5469 94.5104,266.5469 L95.6354,266.5469 L95.6354,259.8906 L93.7917,259.8906 L93.7917,261.5 Q93.7917,262.1094 93.5573,262.375 Q93.3229,262.6406 92.9479,262.6406 Q92.5729,262.6406 92.3385,262.375 Q92.1042,262.1094 92.1042,261.5 L92.1042,258.1875 L100.9167,258.1875 L100.9167,261.5 Q100.9167,262.1094 100.6745,262.375 Q100.4323,262.6406 100.0573,262.6406 Q99.6823,262.6406 99.4479,262.375 Q99.2135,262.1094 99.2135,261.5 L99.2135,259.8906 L97.3385,259.8906 Z " fill="#000000"/><text fill="#000000" font-family="sans-serif" font-size="14" lengthAdjust="spacing" textLength="43" x="116.9167" y="268.2285">Bottles</text><line style="stroke:#2688D4;stroke-width:0.5;" x1="50" x2="194.3333" y1="278.5" y2="278.5"/><path d="M59.5,287.276 C57.5633,287.276 56,288.8394 56,290.776 C56,292.7127 57.5633,294.276 59.5,294.276 C61.4367,294.276 63,292.7127 63,290.776 C63,288.8394 61.4367,287.276 59.5,287.276 " fill="#000000" style="stroke:;stroke-width:0.0;stroke-dasharray:;"/><text fill="#000000" font-family="sans-serif" font-size="14" lengthAdjust="spacing" textLength="104" x="70.3333" y="297.0332">Bottle: INTEGER</text><path d="M62.4167,304.8854 C60.8067,304.8854 59.5,306.1921 59.5,307.8021 C59.5,307.9888 59.5,308.1754 59.535,308.3504 L56,311.8854 L56,314.2188 L59.5,314.2188 L59.5,311.8854 L61.8333,311.8854 L61.8333,310.7188 L61.8683,310.6838 C62.0433,310.7188 62.23,310.7188 62.4167,310.7188 C64.0267,310.7188 65.3333,309.4121 65.3333,307.8021 C65.3333,306.1921 64.0267,304.8854 62.4167,304.8854 M63,306.0521 C63.6417,306.0521 64.1667,306.5771 64.1667,307.2188 C64.1667,307.8604 63.6417,308.3854 63,308.3854 C62.3583,308.3854 61.8333,307.8604 61.8333,307.2188 C61.8333,306.5771 62.3583,306.0521 63,306.0521 " fill="#AAAAAA" style="stroke:;stroke-width:0.0;stroke-dasharray:;"/><text fill="#000000" font-family="sans-serif" font-size="14" lengthAdjust="spacing" textLength="119" x="70.3333" y="314.6426">ID: INTEGER «FK»</text><line style="stroke:#2688D4;stroke-width:0.5;" x1="50" x2="194.3333" y1="321.7188" y2="321.7188"/></g><!--MD5=[9b3cf1b3420ff27481e4760178557c46]
class Available--><g id="elem_Available"><rect codeLine="56" fill="#FFFFFF" height="65.6094" id="Available" rx="2.5" ry="2.5" style="stroke:#2688D4;stroke-width:0.5;" width="146.3333" x="49" y="365"/><ellipse cx="89.8" cy="381" fill="#FFFFFF" rx="11" ry="11" style="stroke:#181818;stroke-width:1.0;"/><path d="M90.7219,378.3906 L90.7219,385.0469 L91.8781,385.0469 Q92.4875,385.0469 92.7453,385.2813 Q93.0031,385.5156 93.0031,385.9063 Q93.0031,386.2813 92.7453,386.5156 Q92.4875,386.75 91.8781,386.75 L87.8938,386.75 Q87.2688,386.75 87.0109,386.5156 Q86.7531,386.2813 86.7531,385.8906 Q86.7531,385.5156 87.0109,385.2813 Q87.2688,385.0469 87.8938,385.0469 L89.0188,385.0469 L89.0188,378.3906 L87.175,378.3906 L87.175,380 Q87.175,380.6094 86.9406,380.875 Q86.7063,381.1406 86.3313,381.1406 Q85.9563,381.1406 85.7219,380.875 Q85.4875,380.6094 85.4875,380 L85.4875,376.6875 L94.3,376.6875 L94.3,380 Q94.3,380.6094 94.0578,380.875 Q93.8156,381.1406 93.4406,381.1406 Q93.0656,381.1406 92.8313,380.875 Q92.5969,380.6094 92.5969,380 L92.5969,378.3906 L90.7219,378.3906 Z " fill="#000000"/><text fill="#000000" font-family="sans-serif" font-size="14" lengthAdjust="spacing" textLength="57" x="109.5333" y="386.7285">Available</text><line style="stroke:#2688D4;stroke-width:0.5;" x1="50" x2="194.3333" y1="397" y2="397"/><path d="M62.4167,405.776 C60.8067,405.776 59.5,407.0827 59.5,408.6927 C59.5,408.8794 59.5,409.066 59.535,409.241 L56,412.776 L56,415.1094 L59.5,415.1094 L59.5,412.776 L61.8333,412.776 L61.8333,411.6094 L61.8683,411.5744 C62.0433,411.6094 62.23,411.6094 62.4167,411.6094 C64.0267,411.6094 65.3333,410.3027 65.3333,408.6927 C65.3333,407.0827 64.0267,405.776 62.4167,405.776 M63,406.9427 C63.6417,406.9427 64.1667,407.4677 64.1667,408.1094 C64.1667,408.751 63.6417,409.276 63,409.276 C62.3583,409.276 61.8333,408.751 61.8333,408.1094 C61.8333,407.4677 62.3583,406.9427 63,406.9427 " fill="#AAAAAA" style="stroke:;stroke-width:0.0;stroke-dasharray:;"/><text fill="#000000" font-family="sans-serif" font-size="14" lengthAdjust="spacing" textLength="119" x="70.3333" y="415.5332">ID: INTEGER «FK»</text><line style="stroke:#2688D4;stroke-width:0.5;" x1="50" x2="194.3333" y1="422.6094" y2="422.6094"/></g><!--MD5=[203b311bcf2ff72dc8055b57d3d36824]
class Teamdata--><g id="elem_Teamdata"><rect codeLine="60" fill="#FFFFFF" height="83.2188" id="Teamdata" rx="2.5" ry="2.5" style="stroke:#2688D4;stroke-width:0.5;" width="230.3333" x="7" y="128.5"/><ellipse cx="85.9167" cy="144.5" fill="#FFFFFF" rx="11" ry="11" style="stroke:#181818;stroke-width:1.0;"/><path d="M86.8385,141.8906 L86.8385,148.5469 L87.9948,148.5469 Q88.6042,148.5469 88.862,148.7813 Q89.1198,149.0156 89.1198,149.4063 Q89.1198,149.7813 88.862,150.0156 Q88.6042,150.25 87.9948,150.25 L84.0104,150.25 Q83.3854,150.25 83.1276,150.0156 Q82.8698,149.7813 82.8698,149.3906 Q82.8698,149.0156 83.1276,148.7813 Q83.3854,148.5469 84.0104,148.5469 L85.1354,148.5469 L85.1354,141.8906 L83.2917,141.8906 L83.2917,143.5 Q83.2917,144.1094 83.0573,144.375 Q82.8229,144.6406 82.4479,144.6406 Q82.0729,144.6406 81.8385,144.375 Q81.6042,144.1094 81.6042,143.5 L81.6042,140.1875 L90.4167,140.1875 L90.4167,143.5 Q90.4167,144.1094 90.1745,144.375 Q89.9323,144.6406 89.5573,144.6406 Q89.1823,144.6406 88.9479,144.375 Q88.7135,144.1094 88.7135,143.5 L88.7135,141.8906 L86.8385,141.8906 Z " fill="#000000"/><text fill="#000000" font-family="sans-serif" font-size="14" lengthAdjust="spacing" textLength="64" x="106.4167" y="150.2285">Teamdata</text><line style="stroke:#2688D4;stroke-width:0.5;" x1="8" x2="236.3333" y1="160.5" y2="160.5"/><path d="M20.4167,169.276 C18.8067,169.276 17.5,170.5827 17.5,172.1927 C17.5,172.3794 17.5,172.566 17.535,172.741 L14,176.276 L14,178.6094 L17.5,178.6094 L17.5,176.276 L19.8333,176.276 L19.8333,175.1094 L19.8683,175.0744 C20.0433,175.1094 20.23,175.1094 20.4167,175.1094 C22.0267,175.1094 23.3333,173.8027 23.3333,172.1927 C23.3333,170.5827 22.0267,169.276 20.4167,169.276 M21,170.4427 C21.6417,170.4427 22.1667,170.9677 22.1667,171.6094 C22.1667,172.251 21.6417,172.776 21,172.776 C20.3583,172.776 19.8333,172.251 19.8333,171.6094 C19.8333,170.9677 20.3583,170.4427 21,170.4427 " fill="#B8861B" style="stroke:;stroke-width:0.0;stroke-dasharray:;"/><text fill="#000000" font-family="sans-serif" font-size="14" font-weight="bold" lengthAdjust="spacing" textLength="14" x="28.3333" y="179.0332">ID</text><text fill="#000000" font-family="sans-serif" font-size="14" lengthAdjust="spacing" textLength="189" x="42.3333" y="179.0332">: INTEGER AUTOINCREMENT</text><path d="M17.5,186.8854 C15.5633,186.8854 14,188.4488 14,190.3854 C14,192.3221 15.5633,193.8854 17.5,193.8854 C19.4367,193.8854 21,192.3221 21,190.3854 C21,188.4488 19.4367,186.8854 17.5,186.8854 " fill="#000000" style="stroke:;stroke-width:0.0;stroke-dasharray:;"/><text fill="#000000" font-family="sans-serif" font-size="14" lengthAdjust="spacing" textLength="90" x="28.3333" y="196.6426">Payload TEXT</text><line style="stroke:#2688D4;stroke-width:0.5;" x1="8" x2="236.3333" y1="203.7188" y2="203.7188"/></g><!--MD5=[18fcd1ecae7e397fc71b96812d5bdb85]
link Ingredients to RecipeData--><g id="link_Ingredients_RecipeData"><path codeLine="65" d="M535.3,267.25 C535.3,267.25 578.86,267.25 578.86,267.25 " fill="none" id="Ingredients-RecipeData" style="stroke:#2688D4;stroke-width:1.0;"/><line style="stroke:#2688D4;stroke-width:1.0;" x1="578.86" x2="586.86" y1="267.25" y2="261.25"/><line style="stroke:#2688D4;stroke-width:1.0;" x1="578.86" x2="586.86" y1="267.25" y2="273.25"/><line style="stroke:#2688D4;stroke-width:1.0;" x1="578.86" x2="586.86" y1="267.25" y2="267.25"/><ellipse cx="572.86" cy="267.25" fill="none" rx="4" ry="4" style="stroke:#2688D4;stroke-width:1.0;"/><line style="stroke:#2688D4;stroke-width:1.0;" x1="531.3" x2="531.3" y1="271.25" y2="263.25"/><line style="stroke:#2688D4;stroke-width:1.0;" x1="534.3" x2="534.3" y1="271.25" y2="263.25"/><line style="stroke:#2688D4;stroke-width:1.0;" x1="535.3" x2="527.3" y1="267.25" y2="267.25"/></g><!--MD5=[978ec443749ef1395b5ae4e3a42772e1]
link Recipes to RecipeData--><g id="link_Recipes_RecipeData"><path codeLine="66" d="M535.3,190.5 C535.3,190.5 578.86,190.5 578.86,190.5 " fill="none" id="Recipes-RecipeData" style="stroke:#2688D4;stroke-width:1.0;"/><line style="stroke:#2688D4;stroke-width:1.0;" x1="578.86" x2="586.86" y1="190.5" y2="184.5"/><line style="stroke:#2688D4;stroke-width:1.0;" x1="578.86" x2="586.86" y1="190.5" y2="196.5"/><line style="stroke:#2688D4;stroke-width:1.0;" x1="578.86" x2="586.86" y1="190.5" y2="190.5"/><line style="stroke:#2688D4;stroke-width:1.0;" x1="576.86" x2="576.86" y1="186.5" y2="194.5"/><line style="stroke:#2688D4;stroke-width:1.0;" x1="531.3" x2="531.3" y1="194.5" y2="186.5"/><line style="stroke:#2688D4;stroke-width:1.0;" x1="534.3" x2="534.3" y1="194.5" y2="186.5"/><line style="stroke:#2688D4;stroke-width:1.0;" x1="535.3" x2="527.3" y1="190.5" y2="190.5"/></g><!--MD5=[f36d5348d74d15641584c3667a6ad51f]
link Bottles to Ingredients--><g id="link_Bottles_Ingredients"><path codeLine="67" d="M203.18,289 C203.18,289 288.79,289 288.79,289 " fill="none" id="Bottles-Ingredients" style="stroke:#2688D4;stroke-width:1.0;"/><line style="stroke:#2688D4;stroke-width:1.0;" x1="285.79" x2="296.79" y1="289" y2="289"/><ellipse cx="285.79" cy="289" fill="none" rx="4" ry="4" style="stroke:#2688D4;stroke-width:1.0;"/><line style="stroke:#2688D4;stroke-width:1.0;" x1="292.79" x2="292.79" y1="285" y2="293"/><line style="stroke:#2688D4;stroke-width:1.0;" x1="206.18" x2="195.18" y1="289" y2="289"/><ellipse cx="206.18" cy="289" fill="none" rx="4" ry="4" style="stroke:#2688D4;stroke-width:1.0;"/><line style="stroke:#2688D4;stroke-width:1.0;" x1="199.18" x2="199.18" y1="293" y2="285"/></g><!--MD5=[965111893d83a84c117cbe2dd3abd0e7]
link Available to Ingredients--><g id="link_Available_Ingredients"><path codeLine="68" d="M203.18,398 C203.18,398 288.79,398 288.79,398 " fill="none" id="Available-Ingredients" style="stroke:#2688D4;stroke-width:1.0;"/><line style="stroke:#2688D4;stroke-width:1.0;" x1="285.79" x2="296.79" y1="398" y2="398"/><ellipse cx="285.79" cy="398" fill="none" rx="4" ry="4" style="stroke:#2688D4;stroke-width:1.0;"/><line style="stroke:#2688D4;stroke-width:1.0;" x1="292.79" x2="292.79" y1="394" y2="402"/><line style="stroke:#2688D4;stroke-width:1.0;" x1="206.18" x2="195.18" y1="398" y2="398"/><ellipse cx="206.18" cy="398" fill="none" rx="4" ry="4" style="stroke:#2688D4;stroke-width:1.0;"/><line style="stroke:#2688D4;stroke-width:1.0;" x1="199.18" x2="199.18" y1="402" y2="394"/></g><!--MD5=[c0ec3b70d0e556b8b3a73b655b153d9b]
@startuml DBSchema

!define primary_key(x) <b><color:#b8861b><&key></color> x</b>
!define foreign_key(x) <color:#aaaaaa><&key></color> x
!define column(x) <color:#efefef><&media-record></color> x
!define column_req(x) <color:#000000><&media-record></color> x
!define table(x) entity x << (T, white) >>

skinparam backgroundColor #e6e6e6
left to right direction
skinparam roundcorner 5
skinparam linetype ortho
skinparam shadowing false
skinparam handwritten false

skinparam class {
    BackgroundColor white
    ArrowColor #2688d4
    BorderColor #2688d4
}

table( Ingredients ) {
  primary_key( ID ): INTEGER AUTOINCREMENT 
  column_req( Name ): TEXT 
  column_req( Alcohol ): INTEGER
  column_req( Volume ): INTEGER
  column( Consumption_lifetime ): INTEGER
  column( Consumption ): INTEGER
  column( Fill_level ): INTEGER
  column( Hand ): INTEGER
}

table( Recipes ) {
  primary_key( ID ): INTEGER AUTOINCREMENT
  column_req( Name ): TEXT 
  column_req( Alcohol ): INTEGER
  column_req( Amount ): INTEGER
  column( Comment ): TEXT
  column( Counter_lifetime ): INTEGER
  column( Counter ): INTEGER
  column( Enabled ): INTEGER
  column( Virgin ): INTEGER Default 0
}

table( RecipeData ) {
  foreign_key( Recipe_ID ): INTEGER <<FK>>
  foreign_key( Ingredient_ID ): INTEGER  <<FK>>
  column_req( Amount ): INTEGER
  column( Hand ): INTEGER
}

table( Bottles ) {
  column_req( Bottle ): INTEGER
  foreign_key( ID ): INTEGER <<FK>>
}

table( Available ) {
  foreign_key( ID ): INTEGER <<FK>>
}

table( Teamdata ) {
  primary_key( ID ): INTEGER AUTOINCREMENT
  column_req( Payload ) TEXT
}

Ingredients ||- -o{ RecipeData
Recipes ||- -|{ RecipeData
Bottles |o- -o| Ingredients
Available |o- -o| Ingredients

@enduml

@startuml DBSchema


skinparam backgroundColor #e6e6e6
left to right direction
skinparam roundcorner 5
skinparam linetype ortho
skinparam shadowing false
skinparam handwritten false

skinparam class {
    BackgroundColor white
    ArrowColor #2688d4
    BorderColor #2688d4
}

entity Ingredients << (T, white) >> {
  <b><color:#b8861b><&key></color> ID</b>: INTEGER AUTOINCREMENT 
  <color:#000000><&media-record></color> Name: TEXT 
  <color:#000000><&media-record></color> Alcohol: INTEGER
  <color:#000000><&media-record></color> Volume: INTEGER
  <color:#efefef><&media-record></color> Consumption_lifetime: INTEGER
  <color:#efefef><&media-record></color> Consumption: INTEGER
  <color:#efefef><&media-record></color> Fill_level: INTEGER
  <color:#efefef><&media-record></color> Hand: INTEGER
}

entity Recipes << (T, white) >> {
  <b><color:#b8861b><&key></color> ID</b>: INTEGER AUTOINCREMENT
  <color:#000000><&media-record></color> Name: TEXT 
  <color:#000000><&media-record></color> Alcohol: INTEGER
  <color:#000000><&media-record></color> Amount: INTEGER
  <color:#efefef><&media-record></color> Comment: TEXT
  <color:#efefef><&media-record></color> Counter_lifetime: INTEGER
  <color:#efefef><&media-record></color> Counter: INTEGER
  <color:#efefef><&media-record></color> Enabled: INTEGER
  <color:#efefef><&media-record></color> Virgin: INTEGER Default 0
}

entity RecipeData << (T, white) >> {
  <color:#aaaaaa><&key></color> Recipe_ID: INTEGER <<FK>>
  <color:#aaaaaa><&key></color> Ingredient_ID: INTEGER  <<FK>>
  <color:#000000><&media-record></color> Amount: INTEGER
  <color:#efefef><&media-record></color> Hand: INTEGER
}

entity Bottles << (T, white) >> {
  <color:#000000><&media-record></color> Bottle: INTEGER
  <color:#aaaaaa><&key></color> ID: INTEGER <<FK>>
}

entity Available << (T, white) >> {
  <color:#aaaaaa><&key></color> ID: INTEGER <<FK>>
}

entity Teamdata << (T, white) >> {
  <b><color:#b8861b><&key></color> ID</b>: INTEGER AUTOINCREMENT
  <color:#000000><&media-record></color> Payload TEXT
}

Ingredients ||- -o{ RecipeData
Recipes ||- -|{ RecipeData
Bottles |o- -o| Ingredients
Available |o- -o| Ingredients

@enduml

PlantUML version 1.2022.7(Mon Aug 22 19:01:30 CEST 2022)
(GPL source distribution)
Java Runtime: Java(TM) SE Runtime Environment
JVM: Java HotSpot(TM) 64-Bit Server VM
Default Encoding: Cp1252
Language: de
Country: DE
--></g></svg>