<?xml version="1.0" encoding="UTF-8" standalone="no"?><svg xmlns="http://www.w3.org/2000/svg" xmlns:xlink="http://www.w3.org/1999/xlink" contentStyleType="text/css" height="426px" preserveAspectRatio="none" style="width:815px;height:426px;background:#E6E6E6;" version="1.1" viewBox="0 0 815 426" width="815px" zoomAndPan="magnify"><defs/><g><!--MD5=[093bbd0a40517dd9436edbf70ee7869a]
class Ingredients--><g id="elem_Ingredients"><rect codeLine="21" fill="#FFFFFF" height="188.875" id="Ingredients" rx="2.5" ry="2.5" style="stroke:#2688D4;stroke-width:0.5;" width="230.3333" x="297" y="231"/><ellipse cx="372.9167" cy="247" fill="#FFFFFF" rx="11" ry="11" style="stroke:#181818;stroke-width:1.0;"/><path d="M373.8385,244.3906 L373.8385,251.0469 L374.9948,251.0469 Q375.6042,251.0469 375.862,251.2813 Q376.1198,251.5156 376.1198,251.9063 Q376.1198,252.2813 375.862,252.5156 Q375.6042,252.75 374.9948,252.75 L371.0104,252.75 Q370.3854,252.75 370.1276,252.5156 Q369.8698,252.2813 369.8698,251.8906 Q369.8698,251.5156 370.1276,251.2813 Q370.3854,251.0469 371.0104,251.0469 L372.1354,251.0469 L372.1354,244.3906 L370.2917,244.3906 L370.2917,246 Q370.2917,246.6094 370.0573,246.875 Q369.8229,247.1406 369.4479,247.1406 Q369.0729,247.1406 368.8385,246.875 Q368.6042,246.6094 368.6042,246 L368.6042,242.6875 L377.4167,242.6875 L377.4167,246 Q377.4167,246.6094 377.1745,246.875 Q376.9323,247.1406 376.5573,247.1406 Q376.1823,247.1406 375.9479,246.875 Q375.7135,246.6094 375.7135,246 L375.7135,244.3906 L373.8385,244.3906 Z " fill="#000000"/><text fill="#000000" font-family="sans-serif" font-size="14" lengthAdjust="spacing" textLength="70" x="393.4167" y="252.7285">Ingredients</text><line style="stroke:#2688D4;stroke-width:0.5;" x1="298" x2="526.3333" y1="263" y2="263"/><path d="M310.4167,271.776 C308.8067,271.776 307.5,273.0827 307.5,274.6927 C307.5,274.8794 307.5,275.066 307.535,275.241 L304,278.776 L304,281.1094 L307.5,281.1094 L307.5,278.776 L309.8333,278.776 L309.8333,277.6094 L309.8683,277.5744 C310.0433,277.6094 310.23,277.6094 310.4167,277.6094 C312.0267,277.6094 313.3333,276.3027 313.3333,274.6927 C313.3333,273.0827 312.0267,271.776 310.4167,271.776 M311,272.9427 C311.6417,272.9427 312.1667,273.4677 312.1667,274.1094 C312.1667,274.751 311.6417,275.276 311,275.276 C310.3583,275.276 309.8333,274.751 309.8333,274.1094 C309.8333,273.4677 310.3583,272.9427 311,272.9427 " fill="#B8861B" style="stroke:;stroke-width:0.0;stroke-dasharray:;"/><text fill="#000000" font-family="sans-serif" font-size="14" font-weight="bold" lengthAdjust="spacing" textLength="14" x="318.3333" y="281.5332">ID</text><text fill="#000000" font-family="sans-serif" font-size="14" lengthAdjust="spacing" textLength="189" x="332.3333" y="281.5332">: INTEGER AUTOINCREMENT</text><path d="M307.5,289.3854 C305.5633,289.3854 304,290.9488 304,292.8854 C304,294.8221 305.5633,296.3854 307.5,296.3854 C309.4367,296.3854 311,294.8221 311,292.8854 C311,290.9488 309.4367,289.3854 307.5,289.3854 " fill="#000000" style="stroke:;stroke-width:0.0;stroke-dasharray:;"/><text fill="#000000" font-family="sans-serif" font-size="14" lengthAdjust="spacing" textLength="79" x="318.3333" y="299.1426">Name: TEXT</text><path d="M307.5,306.9948 C305.5633,306.9948 304,308.5581 304,310.4948 C304,312.4315 305.5633,313.9948 307.5,313.9948 C309.4367,313.9948 311,312.4315 311,310.4948 C311,308.5581 309.4367,306.9948 307.5,306.9948 " fill="#000000" style="stroke:;stroke-width:0.0;stroke-dasharray:;"/><text fill="#000000" font-family="sans-serif" font-size="14" lengthAdjust="spacing" textLength="114" x="318.3333" y="316.752">Alcohol: INTEGER</text><path d="M307.5,324.6042 C305.5633,324.6042 304,326.1675 304,328.1042 C304,330.0408 305.5633,331.6042 307.5,331.6042 C309.4367,331.6042 311,330.0408 311,328.1042 C311,326.1675 309.4367,324.6042 307.5,324.6042 " fill="#000000" style="stroke:;stroke-width:0.0;stroke-dasharray:;"/><text fill="#000000" font-family="sans-serif" font-size="14" lengthAdjust="spacing" textLength="115" x="318.3333" y="334.3613">Volume: INTEGER</text><path d="M307.5,342.2135 C305.5633,342.2135 304,343.7769 304,345.7135 C304,347.6502 305.5633,349.2135 307.5,349.2135 C309.4367,349.2135 311,347.6502 311,345.7135 C311,343.7769 309.4367,342.2135 307.5,342.2135 " fill="#EFEFEF" style="stroke:;stroke-width:0.0;stroke-dasharray:;"/><text fill="#000000" font-family="sans-serif" font-size="14" lengthAdjust="spacing" textLength="203" x="318.3333" y="351.9707">Consumption_lifetime: INTEGER</text><path d="M307.5,359.8229 C305.5633,359.8229 304,361.3862 304,363.3229 C304,365.2596 305.5633,366.8229 307.5,366.8229 C309.4367,366.8229 311,365.2596 311,363.3229 C311,361.3862 309.4367,359.8229 307.5,359.8229 " fill="#EFEFEF" style="stroke:;stroke-width:0.0;stroke-dasharray:;"/><text fill="#000000" font-family="sans-serif" font-size="14" lengthAdjust="spacing" textLength="151" x="318.3333" y="369.5801">Consumption: INTEGER</text><path d="M307.5,377.4323 C305.5633,377.4323 304,378.9956 304,380.9323 C304,382.869 305.5633,384.4323 307.5,384.4323 C309.4367,384.4323 311,382.869 311,380.9323 C311,378.9956 309.4367,377.4323 307.5,377.4323 " fill="#EFEFEF" style="stroke:;stroke-width:0.0;stroke-dasharray:;"/><text fill="#000000" font-family="sans-serif" font-size="14" lengthAdjust="spacing" textLength="123" x="318.3333" y="387.1895">Fill_level: INTEGER</text><path d="M307.5,395.0417 C305.5633,395.0417 304,396.605 304,398.5417 C304,400.4783 305.5633,402.0417 307.5,402.0417 C309.4367,402.0417 311,400.4783 311,398.5417 C311,396.605 309.4367,395.0417 307.5,395.0417 " fill="#EFEFEF" style="stroke:;stroke-width:0.0;stroke-dasharray:;"/><text fill="#000000" font-family="sans-serif" font-size="14" lengthAdjust="spacing" textLength="101" x="318.3333" y="404.7988">Hand: INTEGER</text><line style="stroke:#2688D4;stroke-width:0.5;" x1="298" x2="526.3333" y1="411.875" y2="411.875"/></g><!--MD5=[b7656c1c561edf5714384b90510e3d3b]
class Recipes--><g id="elem_Recipes"><rect codeLine="32" fill="#FFFFFF" height="188.875" id="Recipes" rx="2.5" ry="2.5" style="stroke:#2688D4;stroke-width:0.5;" width="230.3333" x="297" y="7"/><ellipse cx="382.4167" cy="23" fill="#FFFFFF" rx="11" ry="11" style="stroke:#181818;stroke-width:1.0;"/><path d="M383.3385,20.3906 L383.3385,27.0469 L384.4948,27.0469 Q385.1042,27.0469 385.362,27.2813 Q385.6198,27.5156 385.6198,27.9063 Q385.6198,28.2813 385.362,28.5156 Q385.1042,28.75 384.4948,28.75 L380.5104,28.75 Q379.8854,28.75 379.6276,28.5156 Q379.3698,28.2813 379.3698,27.8906 Q379.3698,27.5156 379.6276,27.2813 Q379.8854,27.0469 380.5104,27.0469 L381.6354,27.0469 L381.6354,20.3906 L379.7917,20.3906 L379.7917,22 Q379.7917,22.6094 379.5573,22.875 Q379.3229,23.1406 378.9479,23.1406 Q378.5729,23.1406 378.3385,22.875 Q378.1042,22.6094 378.1042,22 L378.1042,18.6875 L386.9167,18.6875 L386.9167,22 Q386.9167,22.6094 386.6745,22.875 Q386.4323,23.1406 386.0573,23.1406 Q385.6823,23.1406 385.4479,22.875 Q385.2135,22.6094 385.2135,22 L385.2135,20.3906 L383.3385,20.3906 Z " fill="#000000"/><text fill="#000000" font-family="sans-serif" font-size="14" lengthAdjust="spacing" textLength="51" x="402.9167" y="28.7285">Recipes</text><line style="stroke:#2688D4;stroke-width:0.5;" x1="298" x2="526.3333" y1="39" y2="39"/><path d="M310.4167,47.776 C308.8067,47.776 307.5,49.0827 307.5,50.6927 C307.5,50.8794 307.5,51.066 307.535,51.241 L304,54.776 L304,57.1094 L307.5,57.1094 L307.5,54.776 L309.8333,54.776 L309.8333,53.6094 L309.8683,53.5744 C310.0433,53.6094 310.23,53.6094 310.4167,53.6094 C312.0267,53.6094 313.3333,52.3027 313.3333,50.6927 C313.3333,49.0827 312.0267,47.776 310.4167,47.776 M311,48.9427 C311.6417,48.9427 312.1667,49.4677 312.1667,50.1094 C312.1667,50.751 311.6417,51.276 311,51.276 C310.3583,51.276 309.8333,50.751 309.8333,50.1094 C309.8333,49.4677 310.3583,48.9427 311,48.9427 " fill="#B8861B" style="stroke:;stroke-width:0.0;stroke-dasharray:;"/><text fill="#000000" font-family="sans-serif" font-size="14" font-weight="bold" lengthAdjust="spacing" textLength="14" x="318.3333" y="57.5332">ID</text><text fill="#000000" font-family="sans-serif" font-size="14" lengthAdjust="spacing" textLength="189" x="332.3333" y="57.5332">: INTEGER AUTOINCREMENT</text><path d="M307.5,65.3854 C305.5633,65.3854 304,66.9487 304,68.8854 C304,70.8221 305.5633,72.3854 307.5,72.3854 C309.4367,72.3854 311,70.8221 311,68.8854 C311,66.9487 309.4367,65.3854 307.5,65.3854 " fill="#000000" style="stroke:;stroke-width:0.0;stroke-dasharray:;"/><text fill="#000000" font-family="sans-serif" font-size="14" lengthAdjust="spacing" textLength="79" x="318.3333" y="75.1426">Name: TEXT</text><path d="M307.5,82.9948 C305.5633,82.9948 304,84.5581 304,86.4948 C304,88.4315 305.5633,89.9948 307.5,89.9948 C309.4367,89.9948 311,88.4315 311,86.4948 C311,84.5581 309.4367,82.9948 307.5,82.9948 " fill="#000000" style="stroke:;stroke-width:0.0;stroke-dasharray:;"/><text fill="#000000" font-family="sans-serif" font-size="14" lengthAdjust="spacing" textLength="114" x="318.3333" y="92.752">Alcohol: INTEGER</text><path d="M307.5,100.6042 C305.5633,100.6042 304,102.1675 304,104.1042 C304,106.0408 305.5633,107.6042 307.5,107.6042 C309.4367,107.6042 311,106.0408 311,104.1042 C311,102.1675 309.4367,100.6042 307.5,100.6042 " fill="#000000" style="stroke:;stroke-width:0.0;stroke-dasharray:;"/><text fill="#000000" font-family="sans-serif" font-size="14" lengthAdjust="spacing" textLength="116" x="318.3333" y="110.3613">Amount: INTEGER</text><path d="M307.5,118.2135 C305.5633,118.2135 304,119.7769 304,121.7135 C304,123.6502 305.5633,125.2135 307.5,125.2135 C309.4367,125.2135 311,123.6502 311,121.7135 C311,119.7769 309.4367,118.2135 307.5,118.2135 " fill="#EFEFEF" style="stroke:;stroke-width:0.0;stroke-dasharray:;"/><text fill="#000000" font-family="sans-serif" font-size="14" lengthAdjust="spacing" textLength="171" x="318.3333" y="127.9707">Counter_lifetime: INTEGER</text><path d="M307.5,135.8229 C305.5633,135.8229 304,137.3863 304,139.3229 C304,141.2596 305.5633,142.8229 307.5,142.8229 C309.4367,142.8229 311,141.2596 311,139.3229 C311,137.3863 309.4367,135.8229 307.5,135.8229 " fill="#EFEFEF" style="stroke:;stroke-width:0.0;stroke-dasharray:;"/><text fill="#000000" font-family="sans-serif" font-size="14" lengthAdjust="spacing" textLength="119" x="318.3333" y="145.5801">Counter: INTEGER</text><path d="M307.5,153.4323 C305.5633,153.4323 304,154.9956 304,156.9323 C304,158.869 305.5633,160.4323 307.5,160.4323 C309.4367,160.4323 311,158.869 311,156.9323 C311,154.9956 309.4367,153.4323 307.5,153.4323 " fill="#EFEFEF" style="stroke:;stroke-width:0.0;stroke-dasharray:;"/><text fill="#000000" font-family="sans-serif" font-size="14" lengthAdjust="spacing" textLength="120" x="318.3333" y="163.1895">Enabled: INTEGER</text><path d="M307.5,171.0417 C305.5633,171.0417 304,172.605 304,174.5417 C304,176.4783 305.5633,178.0417 307.5,178.0417 C309.4367,178.0417 311,176.4783 311,174.5417 C311,172.605 309.4367,171.0417 307.5,171.0417 " fill="#EFEFEF" style="stroke:;stroke-width:0.0;stroke-dasharray:;"/><text fill="#000000" font-family="sans-serif" font-size="14" lengthAdjust="spacing" textLength="165" x="318.3333" y="180.7988">Virgin: INTEGER Default 0</text><line style="stroke:#2688D4;stroke-width:0.5;" x1="298" x2="526.3333" y1="187.875" y2="187.875"/></g><!--MD5=[050b448e586012ab13fe1971771c053c]
class RecipeData--><g id="elem_RecipeData"><rect codeLine="43" fill="#FFFFFF" height="118.4375" id="RecipeData" rx="2.5" ry="2.5" style="stroke:#2688D4;stroke-width:0.5;" width="221.3333" x="587" y="154.5"/><ellipse cx="656.4167" cy="170.5" fill="#FFFFFF" rx="11" ry="11" style="stroke:#181818;stroke-width:1.0;"/><path d="M657.3385,167.8906 L657.3385,174.5469 L658.4948,174.5469 Q659.1042,174.5469 659.362,174.7813 Q659.6198,175.0156 659.6198,175.4063 Q659.6198,175.7813 659.362,176.0156 Q659.1042,176.25 658.4948,176.25 L654.5104,176.25 Q653.8854,176.25 653.6276,176.0156 Q653.3698,175.7813 653.3698,175.3906 Q653.3698,175.0156 653.6276,174.7813 Q653.8854,174.5469 654.5104,174.5469 L655.6354,174.5469 L655.6354,167.8906 L653.7917,167.8906 L653.7917,169.5 Q653.7917,170.1094 653.5573,170.375 Q653.3229,170.6406 652.9479,170.6406 Q652.5729,170.6406 652.3385,170.375 Q652.1042,170.1094 652.1042,169.5 L652.1042,166.1875 L660.9167,166.1875 L660.9167,169.5 Q660.9167,170.1094 660.6745,170.375 Q660.4323,170.6406 660.0573,170.6406 Q659.6823,170.6406 659.4479,170.375 Q659.2135,170.1094 659.2135,169.5 L659.2135,167.8906 L657.3385,167.8906 Z " fill="#000000"/><text fill="#000000" font-family="sans-serif" font-size="14" lengthAdjust="spacing" textLength="74" x="676.9167" y="176.2285">RecipeData</text><line style="stroke:#2688D4;stroke-width:0.5;" x1="588" x2="807.3333" y1="186.5" y2="186.5"/><path d="M600.4167,195.276 C598.8067,195.276 597.5,196.5827 597.5,198.1927 C597.5,198.3794 597.5,198.566 597.535,198.741 L594,202.276 L594,204.6094 L597.5,204.6094 L597.5,202.276 L599.8333,202.276 L599.8333,201.1094 L599.8683,201.0744 C600.0433,201.1094 600.23,201.1094 600.4167,201.1094 C602.0267,201.1094 603.3333,199.8027 603.3333,198.1927 C603.3333,196.5827 602.0267,195.276 600.4167,195.276 M601,196.4427 C601.6417,196.4427 602.1667,196.9677 602.1667,197.6094 C602.1667,198.251 601.6417,198.776 601,198.776 C600.3583,198.776 599.8333,198.251 599.8333,197.6094 C599.8333,196.9677 600.3583,196.4427 601,196.4427 " fill="#AAAAAA" style="stroke:;stroke-width:0.0;stroke-dasharray:;"/><text fill="#000000" font-family="sans-serif" font-size="14" lengthAdjust="spacing" textLength="171" x="608.3333" y="205.0332">Recipe_ID: INTEGER «FK»</text><path d="M600.4167,212.8854 C598.8067,212.8854 597.5,214.1921 597.5,215.8021 C597.5,215.9887 597.5,216.1754 597.535,216.3504 L594,219.8854 L594,222.2188 L597.5,222.2188 L597.5,219.8854 L599.8333,219.8854 L599.8333,218.7188 L599.8683,218.6838 C600.0433,218.7188 600.23,218.7188 600.4167,218.7188 C602.0267,218.7188 603.3333,217.4121 603.3333,215.8021 C603.3333,214.1921 602.0267,212.8854 600.4167,212.8854 M601,214.0521 C601.6417,214.0521 602.1667,214.5771 602.1667,215.2188 C602.1667,215.8604 601.6417,216.3854 601,216.3854 C600.3583,216.3854 599.8333,215.8604 599.8333,215.2188 C599.8333,214.5771 600.3583,214.0521 601,214.0521 " fill="#AAAAAA" style="stroke:;stroke-width:0.0;stroke-dasharray:;"/><text fill="#000000" font-family="sans-serif" font-size="14" lengthAdjust="spacing" textLength="194" x="608.3333" y="222.6426">Ingredient_ID: INTEGER  «FK»</text><path d="M597.5,230.4948 C595.5633,230.4948 594,232.0581 594,233.9948 C594,235.9315 595.5633,237.4948 597.5,237.4948 C599.4367,237.4948 601,235.9315 601,233.9948 C601,232.0581 599.4367,230.4948 597.5,230.4948 " fill="#000000" style="stroke:;stroke-width:0.0;stroke-dasharray:;"/><text fill="#000000" font-family="sans-serif" font-size="14" lengthAdjust="spacing" textLength="116" x="608.3333" y="240.252">Amount: INTEGER</text><path d="M597.5,248.1042 C595.5633,248.1042 594,249.6675 594,251.6042 C594,253.5408 595.5633,255.1042 597.5,255.1042 C599.4367,255.1042 601,253.5408 601,251.6042 C601,249.6675 599.4367,248.1042 597.5,248.1042 " fill="#EFEFEF" style="stroke:;stroke-width:0.0;stroke-dasharray:;"/><text fill="#000000" font-family="sans-serif" font-size="14" lengthAdjust="spacing" textLength="101" x="608.3333" y="257.8613">Hand: INTEGER</text><line style="stroke:#2688D4;stroke-width:0.5;" x1="588" x2="807.3333" y1="264.9375" y2="264.9375"/></g><!--MD5=[8c764f1023ba6897df25eaf4ba63518a]
class Bottles--><g id="elem_Bottles"><rect codeLine="50" fill="#FFFFFF" height="83.2188" id="Bottles" rx="2.5" ry="2.5" style="stroke:#2688D4;stroke-width:0.5;" width="146.3333" x="49" y="229"/><ellipse cx="96.4167" cy="245" fill="#FFFFFF" rx="11" ry="11" style="stroke:#181818;stroke-width:1.0;"/><path d="M97.3385,242.3906 L97.3385,249.0469 L98.4948,249.0469 Q99.1042,249.0469 99.362,249.2813 Q99.6198,249.5156 99.6198,249.9063 Q99.6198,250.2813 99.362,250.5156 Q99.1042,250.75 98.4948,250.75 L94.5104,250.75 Q93.8854,250.75 93.6276,250.5156 Q93.3698,250.2813 93.3698,249.8906 Q93.3698,249.5156 93.6276,249.2813 Q93.8854,249.0469 94.5104,249.0469 L95.6354,249.0469 L95.6354,242.3906 L93.7917,242.3906 L93.7917,244 Q93.7917,244.6094 93.5573,244.875 Q93.3229,245.1406 92.9479,245.1406 Q92.5729,245.1406 92.3385,244.875 Q92.1042,244.6094 92.1042,244 L92.1042,240.6875 L100.9167,240.6875 L100.9167,244 Q100.9167,244.6094 100.6745,244.875 Q100.4323,245.1406 100.0573,245.1406 Q99.6823,245.1406 99.4479,244.875 Q99.2135,244.6094 99.2135,244 L99.2135,242.3906 L97.3385,242.3906 Z " fill="#000000"/><text fill="#000000" font-family="sans-serif" font-size="14" lengthAdjust="spacing" textLength="43" x="116.9167" y="250.7285">Bottles</text><line style="stroke:#2688D4;stroke-width:0.5;" x1="50" x2="194.3333" y1="261" y2="261"/><path d="M59.5,269.776 C57.5633,269.776 56,271.3394 56,273.276 C56,275.2127 57.5633,276.776 59.5,276.776 C61.4367,276.776 63,275.2127 63,273.276 C63,271.3394 61.4367,269.776 59.5,269.776 " fill="#000000" style="stroke:;stroke-width:0.0;stroke-dasharray:;"/><text fill="#000000" font-family="sans-serif" font-size="14" lengthAdjust="spacing" textLength="104" x="70.3333" y="279.5332">Bottle: INTEGER</text><path d="M62.4167,287.3854 C60.8067,287.3854 59.5,288.6921 59.5,290.3021 C59.5,290.4888 59.5,290.6754 59.535,290.8504 L56,294.3854 L56,296.7188 L59.5,296.7188 L59.5,294.3854 L61.8333,294.3854 L61.8333,293.2188 L61.8683,293.1838 C62.0433,293.2188 62.23,293.2188 62.4167,293.2188 C64.0267,293.2188 65.3333,291.9121 65.3333,290.3021 C65.3333,288.6921 64.0267,287.3854 62.4167,287.3854 M63,288.5521 C63.6417,288.5521 64.1667,289.0771 64.1667,289.7188 C64.1667,290.3604 63.6417,290.8854 63,290.8854 C62.3583,290.8854 61.8333,290.3604 61.8333,289.7188 C61.8333,289.0771 62.3583,288.5521 63,288.5521 " fill="#AAAAAA" style="stroke:;stroke-width:0.0;stroke-dasharray:;"/><text fill="#000000" font-family="sans-serif" font-size="14" lengthAdjust="spacing" textLength="119" x="70.3333" y="297.1426">ID: INTEGER «FK»</text><line style="stroke:#2688D4;stroke-width:0.5;" x1="50" x2="194.3333" y1="304.2188" y2="304.2188"/></g><!--MD5=[9b3cf1b3420ff27481e4760178557c46]
class Available--><g id="elem_Available"><rect codeLine="55" fill="#FFFFFF" height="65.6094" id="Available" rx="2.5" ry="2.5" style="stroke:#2688D4;stroke-width:0.5;" width="146.3333" x="49" y="347.5"/><ellipse cx="89.8" cy="363.5" fill="#FFFFFF" rx="11" ry="11" style="stroke:#181818;stroke-width:1.0;"/><path d="M90.7219,360.8906 L90.7219,367.5469 L91.8781,367.5469 Q92.4875,367.5469 92.7453,367.7813 Q93.0031,368.0156 93.0031,368.4063 Q93.0031,368.7813 92.7453,369.0156 Q92.4875,369.25 91.8781,369.25 L87.8938,369.25 Q87.2688,369.25 87.0109,369.0156 Q86.7531,368.7813 86.7531,368.3906 Q86.7531,368.0156 87.0109,367.7813 Q87.2688,367.5469 87.8938,367.5469 L89.0188,367.5469 L89.0188,360.8906 L87.175,360.8906 L87.175,362.5 Q87.175,363.1094 86.9406,363.375 Q86.7063,363.6406 86.3313,363.6406 Q85.9563,363.6406 85.7219,363.375 Q85.4875,363.1094 85.4875,362.5 L85.4875,359.1875 L94.3,359.1875 L94.3,362.5 Q94.3,363.1094 94.0578,363.375 Q93.8156,363.6406 93.4406,363.6406 Q93.0656,363.6406 92.8313,363.375 Q92.5969,363.1094 92.5969,362.5 L92.5969,360.8906 L90.7219,360.8906 Z " fill="#000000"/><text fill="#000000" font-family="sans-serif" font-size="14" lengthAdjust="spacing" textLength="57" x="109.5333" y="369.2285">Available</text><line style="stroke:#2688D4;stroke-width:0.5;" x1="50" x2="194.3333" y1="379.5" y2="379.5"/><path d="M62.4167,388.276 C60.8067,388.276 59.5,389.5827 59.5,391.1927 C59.5,391.3794 59.5,391.566 59.535,391.741 L56,395.276 L56,397.6094 L59.5,397.6094 L59.5,395.276 L61.8333,395.276 L61.8333,394.1094 L61.8683,394.0744 C62.0433,394.1094 62.23,394.1094 62.4167,394.1094 C64.0267,394.1094 65.3333,392.8027 65.3333,391.1927 C65.3333,389.5827 64.0267,388.276 62.4167,388.276 M63,389.4427 C63.6417,389.4427 64.1667,389.9677 64.1667,390.6094 C64.1667,391.251 63.6417,391.776 63,391.776 C62.3583,391.776 61.8333,391.251 61.8333,390.6094 C61.8333,389.9677 62.3583,389.4427 63,389.4427 " fill="#AAAAAA" style="stroke:;stroke-width:0.0;stroke-dasharray:;"/><text fill="#000000" font-family="sans-serif" font-size="14" lengthAdjust="spacing" textLength="119" x="70.3333" y="398.0332">ID: INTEGER «FK»</text><line style="stroke:#2688D4;stroke-width:0.5;" x1="50" x2="194.3333" y1="405.1094" y2="405.1094"/></g><!--MD5=[203b311bcf2ff72dc8055b57d3d36824]
class Teamdata--><g id="elem_Teamdata"><rect codeLine="59" fill="#FFFFFF" height="83.2188" id="Teamdata" rx="2.5" ry="2.5" style="stroke:#2688D4;stroke-width:0.5;" width="230.3333" x="7" y="111"/><ellipse cx="85.9167" cy="127" fill="#FFFFFF" rx="11" ry="11" style="stroke:#181818;stroke-width:1.0;"/><path d="M86.8385,124.3906 L86.8385,131.0469 L87.9948,131.0469 Q88.6042,131.0469 88.862,131.2813 Q89.1198,131.5156 89.1198,131.9063 Q89.1198,132.2813 88.862,132.5156 Q88.6042,132.75 87.9948,132.75 L84.0104,132.75 Q83.3854,132.75 83.1276,132.5156 Q82.8698,132.2813 82.8698,131.8906 Q82.8698,131.5156 83.1276,131.2813 Q83.3854,131.0469 84.0104,131.0469 L85.1354,131.0469 L85.1354,124.3906 L83.2917,124.3906 L83.2917,126 Q83.2917,126.6094 83.0573,126.875 Q82.8229,127.1406 82.4479,127.1406 Q82.0729,127.1406 81.8385,126.875 Q81.6042,126.6094 81.6042,126 L81.6042,122.6875 L90.4167,122.6875 L90.4167,126 Q90.4167,126.6094 90.1745,126.875 Q89.9323,127.1406 89.5573,127.1406 Q89.1823,127.1406 88.9479,126.875 Q88.7135,126.6094 88.7135,126 L88.7135,124.3906 L86.8385,124.3906 Z " fill="#000000"/><text fill="#000000" font-family="sans-serif" font-size="14" lengthAdjust="spacing" textLength="64" x="106.4167" y="132.7285">Teamdata</text><line style="stroke:#2688D4;stroke-width:0.5;" x1="8" x2="236.3333" y1="143" y2="143"/><path d="M20.4167,151.776 C18.8067,151.776 17.5,153.0827 17.5,154.6927 C17.5,154.8794 17.5,155.066 17.535,155.241 L14,158.776 L14,161.1094 L17.5,161.1094 L17.5,158.776 L19.8333,158.776 L19.8333,157.6094 L19.8683,157.5744 C20.0433,157.6094 20.23,157.6094 20.4167,157.6094 C22.0267,157.6094 23.3333,156.3027 23.3333,154.6927 C23.3333,153.0827 22.0267,151.776 20.4167,151.776 M21,152.9427 C21.6417,152.9427 22.1667,153.4677 22.1667,154.1094 C22.1667,154.751 21.6417,155.276 21,155.276 C20.3583,155.276 19.8333,154.751 19.8333,154.1094 C19.8333,153.4677 20.3583,152.9427 21,152.9427 " fill="#B8861B" style="stroke:;stroke-width:0.0;stroke-dasharray:;"/><text fill="#000000" font-family="sans-serif" font-size="14" font-weight="bold" lengthAdjust="spacing" textLength="14" x="28.3333" y="161.5332">ID</text><text fill="#000000" font-family="sans-serif" font-size="14" lengthAdjust="spacing" textLength="189" x="42.3333" y="161.5332">: INTEGER AUTOINCREMENT</text><path d="M17.5,169.3854 C15.5633,169.3854 14,170.9488 14,172.8854 C14,174.8221 15.5633,176.3854 17.5,176.3854 C19.4367,176.3854 21,174.8221 21,172.8854 C21,170.9488 19.4367,169.3854 17.5,169.3854 " fill="#000000" style="stroke:;stroke-width:0.0;stroke-dasharray:;"/><text fill="#000000" font-family="sans-serif" font-size="14" lengthAdjust="spacing" textLength="90" x="28.3333" y="179.1426">Payload TEXT</text><line style="stroke:#2688D4;stroke-width:0.5;" x1="8" x2="236.3333" y1="186.2188" y2="186.2188"/></g><!--MD5=[18fcd1ecae7e397fc71b96812d5bdb85]
link Ingredients to RecipeData--><g id="link_Ingredients_RecipeData"><path codeLine="64" d="M535.3,251.75 C535.3,251.75 578.86,251.75 578.86,251.75 " fill="none" id="Ingredients-RecipeData" style="stroke:#2688D4;stroke-width:1.0;"/><line style="stroke:#2688D4;stroke-width:1.0;" x1="578.86" x2="586.86" y1="251.75" y2="245.75"/><line style="stroke:#2688D4;stroke-width:1.0;" x1="578.86" x2="586.86" y1="251.75" y2="257.75"/><line style="stroke:#2688D4;stroke-width:1.0;" x1="578.86" x2="586.86" y1="251.75" y2="251.75"/><ellipse cx="572.86" cy="251.75" fill="none" rx="4" ry="4" style="stroke:#2688D4;stroke-width:1.0;"/><line style="stroke:#2688D4;stroke-width:1.0;" x1="531.3" x2="531.3" y1="255.75" y2="247.75"/><line style="stroke:#2688D4;stroke-width:1.0;" x1="534.3" x2="534.3" y1="255.75" y2="247.75"/><line style="stroke:#2688D4;stroke-width:1.0;" x1="535.3" x2="527.3" y1="251.75" y2="251.75"/></g><!--MD5=[978ec443749ef1395b5ae4e3a42772e1]
link Recipes to RecipeData--><g id="link_Recipes_RecipeData"><path codeLine="65" d="M535.3,175.25 C535.3,175.25 578.86,175.25 578.86,175.25 " fill="none" id="Recipes-RecipeData" style="stroke:#2688D4;stroke-width:1.0;"/><line style="stroke:#2688D4;stroke-width:1.0;" x1="578.86" x2="586.86" y1="175.25" y2="169.25"/><line style="stroke:#2688D4;stroke-width:1.0;" x1="578.86" x2="586.86" y1="175.25" y2="181.25"/><line style="stroke:#2688D4;stroke-width:1.0;" x1="578.86" x2="586.86" y1="175.25" y2="175.25"/><line style="stroke:#2688D4;stroke-width:1.0;" x1="576.86" x2="576.86" y1="171.25" y2="179.25"/><line style="stroke:#2688D4;stroke-width:1.0;" x1="531.3" x2="531.3" y1="179.25" y2="171.25"/><line style="stroke:#2688D4;stroke-width:1.0;" x1="534.3" x2="534.3" y1="179.25" y2="171.25"/><line style="stroke:#2688D4;stroke-width:1.0;" x1="535.3" x2="527.3" y1="175.25" y2="175.25"/></g><!--MD5=[f36d5348d74d15641584c3667a6ad51f]
link Bottles to Ingredients--><g id="link_Bottles_Ingredients"><path codeLine="66" d="M203.18,271.5 C203.18,271.5 288.79,271.5 288.79,271.5 " fill="none" id="Bottles-Ingredients" style="stroke:#2688D4;stroke-width:1.0;"/><line style="stroke:#2688D4;stroke-width:1.0;" x1="285.79" x2="296.79" y1="271.5" y2="271.5"/><ellipse cx="285.79" cy="271.5" fill="none" rx="4" ry="4" style="stroke:#2688D4;stroke-width:1.0;"/><line style="stroke:#2688D4;stroke-width:1.0;" x1="292.79" x2="292.79" y1="267.5" y2="275.5"/><line style="stroke:#2688D4;stroke-width:1.0;" x1="206.18" x2="195.18" y1="271.5" y2="271.5"/><ellipse cx="206.18" cy="271.5" fill="none" rx="4" ry="4" style="stroke:#2688D4;stroke-width:1.0;"/><line style="stroke:#2688D4;stroke-width:1.0;" x1="199.18" x2="199.18" y1="275.5" y2="267.5"/></g><!--MD5=[965111893d83a84c117cbe2dd3abd0e7]
link Available to Ingredients--><g id="link_Available_Ingredients"><path codeLine="67" d="M203.18,380.5 C203.18,380.5 288.79,380.5 288.79,380.5 " fill="none" id="Available-Ingredients" style="stroke:#2688D4;stroke-width:1.0;"/><line style="stroke:#2688D4;stroke-width:1.0;" x1="285.79" x2="296.79" y1="380.5" y2="380.5"/><ellipse cx="285.79" cy="380.5" fill="none" rx="4" ry="4" style="stroke:#2688D4;stroke-width:1.0;"/><line style="stroke:#2688D4;stroke-width:1.0;" x1="292.79" x2="292.79" y1="376.5" y2="384.5"/><line style="stroke:#2688D4;stroke-width:1.0;" x1="206.18" x2="195.18" y1="380.5" y2="380.5"/><ellipse cx="206.18" cy="380.5" fill="none" rx="4" ry="4" style="stroke:#2688D4;stroke-width:1.0;"/><line style="stroke:#2688D4;stroke-width:1.0;" x1="199.18" x2="199.18" y1="384.5" y2="376.5"/></g><!--MD5=[a5c300b5d2b60bb60f6e22a267281765]
@startuml DBSchema

!define primary_key(x) <b><color:#b8861b><&key></color> x</b>
!define foreign_key(x) <color:#aaaaaa><&key></color> x
!define column(x) <color:#efefef><&media-record></color> x
!define column_req(x) <color:#000000><&media-record></color> x
!define table(x) entity x << (T, white) >>

skinparam backgroundColor #e6e6e6
left to right direction
skinparam roundcorner 5
skinparam linetype ortho
skinparam shadowing false
skinparam handwritten false

skinparam class {
    BackgroundColor white
    ArrowColor #2688d4
    BorderColor #2688d4
}

table( Ingredients ) {
  primary_key( ID ): INTEGER AUTOINCREMENT 
  column_req( Name ): TEXT 
  column_req( Alcohol ): INTEGER
  column_req( Volume ): INTEGER
  column( Consumption_lifetime ): INTEGER
  column( Consumption ): INTEGER
  column( Fill_level ): INTEGER
  column( Hand ): INTEGER
}

table( Recipes ) {
  primary_key( ID ): INTEGER AUTOINCREMENT
  column_req( Name ): TEXT 
  column_req( Alcohol ): INTEGER
  column_req( Amount ): INTEGER
  column( Counter_lifetime ): INTEGER
  column( Counter ): INTEGER
  column( Enabled ): INTEGER
  column( Virgin ): INTEGER Default 0
}

table( RecipeData ) {
  foreign_key( Recipe_ID ): INTEGER <<FK>>
  foreign_key( Ingredient_ID ): INTEGER  <<FK>>
  column_req( Amount ): INTEGER
  column( Hand ): INTEGER
}

table( Bottles ) {
  column_req( Bottle ): INTEGER
  foreign_key( ID ): INTEGER <<FK>>
}

table( Available ) {
  foreign_key( ID ): INTEGER <<FK>>
}

table( Teamdata ) {
  primary_key( ID ): INTEGER AUTOINCREMENT
  column_req( Payload ) TEXT
}

Ingredients ||- -o{ RecipeData
Recipes ||- -|{ RecipeData
Bottles |o- -o| Ingredients
Available |o- -o| Ingredients

@enduml

@startuml DBSchema


skinparam backgroundColor #e6e6e6
left to right direction
skinparam roundcorner 5
skinparam linetype ortho
skinparam shadowing false
skinparam handwritten false

skinparam class {
    BackgroundColor white
    ArrowColor #2688d4
    BorderColor #2688d4
}

entity Ingredients << (T, white) >> {
  <b><color:#b8861b><&key></color> ID</b>: INTEGER AUTOINCREMENT 
  <color:#000000><&media-record></color> Name: TEXT 
  <color:#000000><&media-record></color> Alcohol: INTEGER
  <color:#000000><&media-record></color> Volume: INTEGER
  <color:#efefef><&media-record></color> Consumption_lifetime: INTEGER
  <color:#efefef><&media-record></color> Consumption: INTEGER
  <color:#efefef><&media-record></color> Fill_level: INTEGER
  <color:#efefef><&media-record></color> Hand: INTEGER
}

entity Recipes << (T, white) >> {
  <b><color:#b8861b><&key></color> ID</b>: INTEGER AUTOINCREMENT
  <color:#000000><&media-record></color> Name: TEXT 
  <color:#000000><&media-record></color> Alcohol: INTEGER
  <color:#000000><&media-record></color> Amount: INTEGER
  <color:#efefef><&media-record></color> Counter_lifetime: INTEGER
  <color:#efefef><&media-record></color> Counter: INTEGER
  <color:#efefef><&media-record></color> Enabled: INTEGER
  <color:#efefef><&media-record></color> Virgin: INTEGER Default 0
}

entity RecipeData << (T, white) >> {
  <color:#aaaaaa><&key></color> Recipe_ID: INTEGER <<FK>>
  <color:#aaaaaa><&key></color> Ingredient_ID: INTEGER  <<FK>>
  <color:#000000><&media-record></color> Amount: INTEGER
  <color:#efefef><&media-record></color> Hand: INTEGER
}

entity Bottles << (T, white) >> {
  <color:#000000><&media-record></color> Bottle: INTEGER
  <color:#aaaaaa><&key></color> ID: INTEGER <<FK>>
}

entity Available << (T, white) >> {
  <color:#aaaaaa><&key></color> ID: INTEGER <<FK>>
}

entity Teamdata << (T, white) >> {
  <b><color:#b8861b><&key></color> ID</b>: INTEGER AUTOINCREMENT
  <color:#000000><&media-record></color> Payload TEXT
}

Ingredients ||- -o{ RecipeData
Recipes ||- -|{ RecipeData
Bottles |o- -o| Ingredients
Available |o- -o| Ingredients

@enduml

PlantUML version 1.2022.7(Mon Aug 22 19:01:30 CEST 2022)
(GPL source distribution)
Java Runtime: Java(TM) SE Runtime Environment
JVM: Java HotSpot(TM) 64-Bit Server VM
Default Encoding: Cp1252
Language: de
Country: DE
--></g></svg>