<svg xmlns:dc="http://purl.org/dc/elements/1.1/" xmlns:cc="http://creativecommons.org/ns#" xmlns:rdf="http://www.w3.org/1999/02/22-rdf-syntax-ns#" xmlns:svg="http://www.w3.org/2000/svg" xmlns="http://www.w3.org/2000/svg" xmlns:sodipodi="http://sodipodi.sourceforge.net/DTD/sodipodi-0.dtd" xmlns:inkscape="http://www.inkscape.org/namespaces/inkscape" version="1.1" id="svg24" width="297.01819" height="475.63635" viewBox="0 0 297.01819 475.63635" sodipodi:docname="berry.svg" inkscape:version="1.0.2-2 (e86c870879, 2021-01-15)">
  <metadata id="metadata30" fill="#ffffff">
    <rdf:RDF fill="#ffffff">
      <cc:Work rdf:about="" fill="#ffffff">
        <dc:format fill="#ffffff">image/svg+xml</dc:format>
        <dc:type rdf:resource="http://purl.org/dc/dcmitype/StillImage" fill="#ffffff"/>
        <dc:title fill="#ffffff"/>
      </cc:Work>
    </rdf:RDF>
  </metadata>
  <defs id="defs28" fill="#ffffff"/>
  <sodipodi:namedview pagecolor="#ffffff" bordercolor="#666666" borderopacity="1" objecttolerance="10" gridtolerance="10" guidetolerance="10" inkscape:pageopacity="0" inkscape:pageshadow="2" inkscape:window-width="3440" inkscape:window-height="1377" id="namedview26" showgrid="false" inkscape:zoom="1.4985474" inkscape:cx="208.06906" inkscape:cy="246.22259" inkscape:window-x="1072" inkscape:window-y="147" inkscape:window-maximized="1" inkscape:current-layer="g32" fill="#ffffff"/>
  <g inkscape:groupmode="layer" inkscape:label="Image" id="g32">
    <path style="fill:#ffffff;stroke-width:0.290909" d="m 143.28938,466.49078 c -48.933225,-0.75101 -91.073475,-7.09563 -110.243775,-16.59823 -5.97483,-2.96169 -9.45754,-5.9744 -11.37542,-9.84035 -3.87626,-7.8135 0.22669,-15.31438 11.45032,-20.93317 16.05896,-8.03942 50.15989,-14.06057 89.805235,-15.85676 3.68,-0.16672 8.29455,-0.38127 10.25455,-0.4768 l 3.56363,-0.17367 v -65.16547 c 0,-56.54933 -0.0553,-65.14424 -0.41822,-65.00497 -1.2378,0.47498 -4.4822,0.83523 -7.43632,0.82571 -3.64254,-0.0118 -6.23485,-0.4612 -9.60453,-1.66524 -5.95863,-2.12909 -11.81918,-7.24876 -14.59705,-12.7517 -0.89583,-1.77463 -0.82007,-2.20045 0.39351,-2.21165 0.91359,-0.008 5.71933,-1.71622 7.85298,-2.79068 5.75158,-2.89636 11.08684,-7.62672 14.45422,-12.81543 2.12414,-3.27305 2.07708,-3.2158 2.27264,-2.7641 0.6091,1.40683 3.92118,5.83579 5.83276,7.79964 3.79903,3.90292 8.03694,6.73587 13.03183,8.7115 l 2.32727,0.9205 0.60868,1.85501 c 0.33477,1.02026 0.76462,2.14643 0.95524,2.50259 0.30478,0.56949 0.20871,0.83184 -0.79676,2.17568 -0.62883,0.84046 -1.81142,2.17773 -2.62797,2.97172 l -1.48464,1.44361 v 80.82006 c 0,76.69792 0.026,80.83072 0.50909,81.02912 0.69146,0.28393 8.96757,0.26607 10.32727,-0.0224 l 1.09091,-0.23136 0.004,-84.85955 c 0.002,-46.67275 0.0829,-85.15409 0.17938,-85.51409 0.16108,-0.60107 0.34495,-0.65464 2.25058,-0.65571 4.5593,-0.003 10.26568,-1.40228 14.74201,-3.61604 2.61007,-1.29081 6.55823,-3.82761 7.24499,-4.6551 1.00853,-1.21521 1.32925,-1.14155 4.06127,0.93264 5.80644,4.40842 14.08907,7.33975 20.73863,7.33975 h 1.99101 l -0.62317,1.23637 c -1.0798,2.14231 -3.02908,4.65066 -5.39388,6.94086 -3.71598,3.59876 -7.67853,5.80736 -12.76089,7.11253 -2.39507,0.61506 -3.57219,0.74599 -6.68843,0.74394 -5.36298,-0.004 -8.61031,-0.89284 -14.76364,-4.0432 -0.12,-0.0614 -0.21818,29.94283 -0.21818,66.67618 0,63.41329 0.0257,66.78789 0.50909,66.78853 0.28,0 3.58545,0.12995 7.34545,0.288 49.60902,2.0851 86.88797,9.25566 101.0466,19.43613 6.83537,4.91486 8.97805,11.41051 5.85102,17.7376 -4.86681,9.84734 -24.59936,17.09327 -59.9158,22.00157 -22.4641,3.12204 -53.70242,4.78683 -81.74545,4.35643 z m 39.12727,-13.75849 c 34.96502,-1.94246 61.03937,-5.83564 78.11213,-11.66301 5.77598,-1.97149 12.3606,-5.45775 12.3606,-6.54435 0,-1.0866 -6.58462,-4.57286 -12.3606,-6.54435 -18.88561,-6.44614 -51.48094,-10.88899 -88.07644,-12.00506 l -2.25523,-0.0688 5.9e-4,1.33251 c 5.8e-4,1.24212 0.0879,1.39511 1.28628,2.25574 6.20497,4.45608 6.16037,13.03645 -0.0916,17.62583 -4.40699,3.23502 -10.72944,4.93931 -18.21218,4.90932 -10.8446,-0.0435 -19.00844,-3.51505 -21.93704,-9.32843 -2.30914,-4.58374 -0.59207,-10.34386 4.01534,-13.47005 1.32345,-0.89798 1.47108,-1.10662 1.47783,-2.08856 l 0.008,-1.09091 -3.27272,0.003 c -4.00236,0.003 -17.87617,0.72056 -25.38183,1.31343 -31.065745,2.4539 -56.566315,7.41408 -68.654545,13.35415 -3.29813,1.62068 -5.67273,3.22813 -5.67273,3.84009 0,1.0507 6.68494,4.57 12.36061,6.50726 17.28101,5.89844 46.18231,10.16302 78.839395,11.63325 3.84,0.17288 7.96364,0.35723 9.16364,0.40965 4.87971,0.21321 43.01501,-0.0868 48.29091,-0.37989 z M 93.053435,249.0477 c -2.48431,-0.36443 -5.09351,-1.09256 -7.34913,-2.05086 -6.60783,-2.80734 -12.81498,-9.36591 -15.26053,-16.12453 -0.90438,-2.49938 -1.91672,-7.18853 -1.68327,-7.7969 0.0734,-0.19119 1.0473,-0.50434 2.16429,-0.69588 4.18801,-0.71817 8.99739,-2.64885 12.95547,-5.20085 1.08499,-0.69956 2.04732,-1.27193 2.13851,-1.27193 0.0912,0 1.10166,0.86789 2.24547,1.92864 5.31889,4.93259 12.100785,8.20412 19.189035,9.25662 5.25731,0.78064 9.87223,0.47759 15.1183,-0.99277 l 1.97312,-0.55302 -0.19604,1.07118 c -0.97327,5.31789 -4.6608,11.84819 -8.71465,15.43293 -6.25737,5.53325 -14.70857,8.15215 -22.580575,6.99737 z m 65.363215,0.14293 c -5.78721,-0.82066 -9.65048,-2.35913 -13.97416,-5.56493 -6.33741,-4.69891 -10.51006,-12.14139 -11.13502,-19.86085 l -0.19991,-2.46918 2.23087,-1.68012 c 2.91019,-2.19175 5.74384,-5.25796 7.8474,-8.49146 0.9306,-1.43046 1.76004,-2.73955 1.84322,-2.90909 0.0976,-0.19885 0.21268,-0.17553 0.32437,0.0657 0.75983,1.64114 4.05787,6.07583 6.07362,8.16685 7.23011,7.50009 16.97161,11.45651 27.06234,10.9911 3.27391,-0.151 7.66062,-0.89678 9.56762,-1.62659 0.46219,-0.17687 0.87542,-0.28521 0.91828,-0.24073 0.0429,0.0445 -0.2129,1.20167 -0.56838,2.57153 -2.60736,10.04762 -10.58101,17.92641 -20.59566,20.35064 -2.32422,0.56262 -7.58841,0.95325 -9.39459,0.69712 z m 47.15193,-0.13088 c -5.43851,-0.85761 -11.68106,-3.76179 -14.23389,-6.62194 -0.52481,-0.58799 -0.51773,-0.62844 0.3253,-1.85698 2.9563,-4.3082 5.02672,-10.5392 5.47497,-16.47714 l 0.20098,-2.66237 1.50125,-1.13345 c 2.31837,-1.75039 5.73748,-5.30118 7.28387,-7.5644 l 1.39859,-2.04691 1.92123,1.76157 c 1.05667,0.96887 3.03395,2.50403 4.39395,3.41148 6.41066,4.27746 12.65205,6.20269 20.17867,6.22434 l 3.7423,0.0108 -0.19825,2.0119 c -0.91038,9.23896 -7.01603,18.02169 -15.43103,22.19694 -4.77332,2.36836 -11.68479,3.51465 -16.55794,2.74619 z m -95.87921,-29.97172 c -14.265255,-1.73337 -24.740775,-13.68234 -24.722125,-28.19946 0.004,-3.3931 -0.0352,-3.33692 2.73085,-3.8804 7.16984,-1.40875 14.845225,-5.56129 19.169785,-10.37124 l 1.37384,-1.52805 2.26741,2.16627 c 5.07079,4.8446 10.08429,7.67457 16.67263,9.41122 2.64044,0.696 3.68797,0.80921 8.39853,0.90768 l 5.38181,0.1125 -0.0353,4.13646 c -0.0272,3.18705 -0.17386,4.6505 -0.63881,6.37603 -2.46217,9.13751 -9.45136,16.55358 -18.52585,19.65732 -3.42845,1.17264 -8.33844,1.66543 -12.07273,1.21167 z m 64.25419,0.008 c -9.46725,-1.1058 -17.95554,-7.27632 -22.05782,-16.03481 -1.76068,-3.7591 -2.373,-6.26546 -2.55047,-10.43973 -0.0945,-2.22271 -0.0204,-4.44801 0.18973,-5.69344 l 0.34485,-2.04455 1.65522,-0.80528 c 3.22766,-1.5703 7.14394,-4.44096 9.82088,-7.1988 1.45111,-1.49497 2.86497,-3.0454 3.14191,-3.4454 l 0.50353,-0.72728 0.73682,0.87273 c 3.71865,4.40449 5.56052,6.06514 9.68958,8.73621 7.13546,4.61591 16.34447,6.59117 24.34257,5.22129 1.42096,-0.24338 3.1261,-0.62344 3.78919,-0.8446 l 1.20563,-0.40209 0.18477,0.91732 c 0.73663,3.65697 0.27461,8.99307 -1.12568,13.00101 -3.61759,10.35433 -12.72119,17.64562 -23.57944,18.88534 -2.89202,0.33019 -3.48051,0.33039 -6.29127,0.002 z M 59.071195,214.29139 c -10.25796,-2.19967 -18.36451,-9.82888 -21.41667,-20.15557 -0.9107,-3.08127 -1.25849,-8.97117 -0.7168,-12.13904 0.47715,-2.79042 1.22361,-5.07184 1.65945,-5.07184 0.20085,0 1.2007,0.19377 2.22189,0.4306 3.21833,0.74638 8.36729,1.06167 11.89903,0.72861 l 3.20023,-0.30179 1.55737,1.42335 c 4.25563,3.88941 10.50294,6.8943 16.77076,8.06655 l 2.71565,0.5079 0.0138,4.39057 c 0.0181,5.76095 0.91844,9.76167 3.34117,14.84591 1.26767,2.66027 1.43391,2.29266 -1.90531,4.21322 -2.41456,1.38873 -5.57362,2.53852 -8.52976,3.10453 -2.67947,0.51304 -8.3224,0.49059 -10.81077,-0.043 z m 170.472735,-1.14585 c -5.63296,-1.12983 -10.47348,-3.71653 -14.61064,-7.80772 -2.6544,-2.6249 -2.61848,-2.50772 -1.7539,-5.72197 0.65527,-2.43613 0.74516,-3.34971 0.75851,-7.70909 0.0108,-3.53361 -0.11621,-5.50621 -0.44493,-6.90968 l -0.46006,-1.96423 2.36459,-1.65114 c 3.16582,-2.21061 6.93854,-6.06668 9.10622,-9.3074 l 1.77367,-2.65166 1.48821,1.22078 c 8.19028,6.71846 20.43549,9.45302 30.65076,6.84483 1.27722,-0.3261 2.39076,-0.52437 2.47454,-0.44059 0.31318,0.31318 0.9645,3.31312 1.28912,5.93763 0.62252,5.03306 -0.53778,11.1056 -3.01091,15.75782 -4.0544,7.62673 -11.59652,13.25188 -19.48392,14.53172 -2.49354,0.40461 -7.81781,0.33673 -10.14126,-0.1293 z M 75.875015,179.37481 c -10.71205,-1.93714 -19.45976,-10.02091 -22.33562,-20.64038 -0.80069,-2.95667 -1.08749,-8.41951 -0.59295,-11.29431 0.75482,-4.38781 2.07824,-7.72359 4.52032,-11.39381 1.38938,-2.08811 5.0368,-5.95801 5.61507,-5.95758 0.11414,9e-5 1.16748,1.04974 2.34074,2.33255 5.59963,6.12253 13.54113,10.26583 21.78511,11.36593 3.03561,0.40507 9.0779,0.18738 11.523176,-0.41517 l 1.696039,-0.41792 -0.19076,0.76005 c -0.978069,3.89694 -1.124869,10.25912 -0.331409,14.36271 0.583529,3.01789 1.698659,6.45759 2.813459,8.67836 l 0.80927,1.61212 -1.79178,2.00577 c -3.110639,3.48216 -8.023345,6.65413 -12.555395,8.10657 -4.04412,1.29607 -9.17808,1.64145 -13.30527,0.89511 z m 55.055405,0.0328 c -10.68401,-2.03062 -19.19348,-9.70994 -22.27353,-20.10063 -0.61709,-2.08181 -0.79964,-3.41228 -0.91556,-6.67298 -0.16428,-4.62116 0.3067,-7.48024 1.92242,-11.66994 0.74465,-1.93095 1.10732,-2.47982 2.13409,-3.2298 0.68034,-0.49694 1.64282,-1.23647 2.13884,-1.6434 l 0.90185,-0.73987 1.67844,2.47093 c 5.17556,7.61926 13.5998,13.13474 23.13604,15.14751 3.30702,0.698 10.18642,0.69699 13.7527,-0.002 2.81034,-0.55085 6.842,-1.89197 9.05695,-3.01279 l 1.42783,-0.72252 -0.18603,3.30095 c -0.42008,7.45374 -2.97081,13.45719 -7.87414,18.53269 -1.13752,1.17746 -2.87311,2.71765 -3.85686,3.42265 -2.4675,1.76828 -6.77433,3.75289 -9.71493,4.47669 -3.22197,0.79305 -8.41622,0.99596 -11.32811,0.44252 z m 59.48623,-0.16727 c -7.95594,-1.23809 -15.70102,-6.39407 -19.87699,-13.23233 l -0.89302,-1.46235 0.7198,-2.46492 c 1.54163,-5.2792 1.99561,-11.59921 1.16965,-16.2831 l -0.38474,-2.18182 1.58964,-1.72142 c 0.87431,-0.94677 2.31361,-2.68327 3.19844,-3.85888 l 1.6088,-2.13748 2.56726,2.47485 c 4.72902,4.55878 9.67308,7.25759 16.93745,9.24562 2.10863,0.57707 3.04937,0.65026 8.20008,0.63802 5.34649,-0.0127 6.04623,-0.0757 8.63113,-0.77731 1.54713,-0.41991 3.896,-1.23281 5.21972,-1.80645 1.32371,-0.57364 2.50259,-0.94385 2.61972,-0.82269 0.32017,0.33117 0.83852,4.50305 0.83852,6.74868 0,2.51012 -0.6551,6.27047 -1.54871,8.88978 -3.02884,8.87805 -10.80453,15.91568 -20.12402,18.21388 -2.69597,0.66483 -7.92971,0.93366 -10.47273,0.53792 z M 43.362095,170.09088 c -13.13361,-2.63514 -22.68774,-14.12585 -22.71504,-27.31929 -0.0104,-5.05135 0.73813,-8.27494 2.97244,-12.80008 0.93564,-1.89494 3.85304,-6.28293 4.17727,-6.28293 0.0488,0 0.78911,0.47224 1.64519,1.04943 5.42005,3.65434 11.45342,5.45596 18.35612,5.48132 2.19979,0.008 3.99979,0.0449 4,0.0818 2.1e-4,0.0369 -0.66546,1.05827 -1.47927,2.2697 -3.70931,5.52157 -5.527,11.83099 -5.52863,19.19045 -10e-4,5.8078 1.09613,10.55406 3.63196,15.70808 0.90252,1.83436 1.18673,2.6814 0.95018,2.83191 -0.5197,0.33067 -3.90392,0.21219 -6.01022,-0.21041 z m 202.472735,-0.0395 c -5.99215,-1.13813 -10.74282,-3.44012 -14.65827,-7.10283 l -1.86515,-1.74476 0.38554,-1.52123 c 1.33994,-5.28705 1.31939,-11.33428 -0.0564,-16.6042 l -0.82387,-3.15569 2.22525,-2.28258 c 3.70535,-3.80081 6.43643,-8.34527 8.23255,-13.69878 0.53726,-1.60138 1.049,-2.98374 1.13719,-3.07193 0.0882,-0.0882 0.87118,0.24082 1.73997,0.73113 3.63451,2.05119 10.87048,3.83591 15.53586,3.83183 2.65981,-0.002 6.96552,-0.68414 9.96555,-1.57809 l 2.47272,-0.73682 1.17502,1.29881 c 2.44971,2.70782 4.84896,7.5992 5.85019,11.92691 0.71852,3.1057 0.71998,8.73736 0.003,11.84407 -2.35617,10.21038 -9.74755,18.02695 -19.92648,21.07274 -2.08502,0.62388 -3.22295,0.76919 -6.5927,0.8418 -2.24,0.0483 -4.4,0.0256 -4.8,-0.0504 z M 143.58029,145.16817 c -9.30339,-0.84197 -17.94445,-6.81276 -22.25759,-15.37953 -6.62123,-13.1511 -1.96885,-28.94141 10.80323,-36.666408 6.0477,-3.65786 14.15084,-4.83931 21.01706,-3.06432 10.41486,2.69235 18.48828,11.111458 20.69843,21.584718 0.63318,3.00046 0.63637,8.27653 0.007,11.25895 -1.75816,8.32887 -7.3609,15.56009 -15.05867,19.43559 -2.73604,1.37748 -6.55122,2.51591 -9.17999,2.73925 -1.0761,0.0914 -2.28382,0.20279 -2.68382,0.24747 -0.4,0.0447 -1.90545,-0.0254 -3.34545,-0.15572 z m 56.14545,-5.02585 c -3.94359,-0.78435 -7.71431,-2.36197 -11.04719,-4.62198 -2.00106,-1.35691 -5.76458,-5.02905 -6.92441,-6.75628 l -0.79173,-1.17905 0.57861,-2.60276 c 1.55297,-6.98565 0.84507,-14.82941 -1.93829,-21.47698 -0.82402,-1.96803 -0.77873,-2.18776 1.12123,-5.439828 5.73677,-9.81932 17.46983,-15.19708 28.83318,-13.21548 11.42086,1.99163 20.70756,11.12668 22.92201,22.547708 0.57607,2.97106 0.45119,8.42871 -0.25959,11.34545 -1.27605,5.23636 -3.83977,9.817 -7.54223,13.47585 -3.7057,3.66206 -7.47631,5.88644 -12.4425,7.34017 -3.25643,0.95324 -9.24482,1.23242 -12.50909,0.58318 z M 87.289375,135.45748 c -10.59313,-1.68328 -19.31811,-9.43307 -22.58402,-20.05981 -0.74852,-2.43559 -0.80464,-2.97324 -0.80464,-7.70909 0,-4.73158 0.0567,-5.27573 0.80279,-7.709098 2.73262,-8.912 9.56031,-15.94396 18.32221,-18.87034 3.00364,-1.00319 5.22909,-1.34298 8.81334,-1.34565 10.233475,-0.008 18.970435,5.11317 24.109255,14.13063 l 1.2405,2.17679 -1.26861,1.89183 c -5.15601,7.688938 -7.07582,17.935078 -5.06257,27.019228 l 0.57677,2.60248 -0.78515,0.81952 c -1.02839,1.07341 -4.46828,3.4344 -6.48716,4.45249 -2.48215,1.25172 -5.413719,2.16395 -8.436355,2.62517 -3.30686,0.50459 -5.14201,0.49933 -8.43636,-0.0241 z m -41.6,-13.69238 c -9.91815,-1.2129 -18.46558,-7.36794 -22.57092,-16.25343 -1.92077,-4.15724 -2.29837,-6.105378 -2.28462,-11.786738 0.0114,-4.6914 0.0742,-5.29173 0.80022,-7.64992 1.49169,-4.84487 3.87037,-8.76432 7.37605,-12.15382 5.69918,-5.5103 12.03234,-8.12361 19.68668,-8.12348 7.78484,1.3e-4 14.38965,2.78759 20.04713,8.46059 1.56,1.56428 2.8311,2.95148 2.82467,3.08266 -0.006,0.13118 -0.8042,0.82761 -1.7728,1.54761 -2.06787,1.53713 -5.06642,4.62869 -7.02285,7.24071 -5.15622,6.88402 -7.74494,15.939148 -6.93324,24.251878 0.28055,2.87325 1.27017,7.67338 1.91027,9.26584 0.2223,0.55303 -0.52931,0.90711 -3.33332,1.57031 -1.93795,0.45835 -6.9078,0.7703 -8.72727,0.54779 z m 210.618185,-4.69104 c -5.12253,-0.27023 -9.40208,-1.63951 -13.74291,-4.39717 -1.26226,-0.80189 -1.6708,-1.22955 -1.67272,-1.75098 -0.007,-1.76849 -0.98746,-7.01907 -1.74364,-9.33309 -1.59916,-4.893598 -4.85258,-10.413718 -8.15197,-13.831528 l -1.40415,-1.45454 0.26065,-1.6 c 1.49023,-9.14767 7.87383,-17.38323 16.50922,-21.2987 6.53074,-2.961175 14.72546,-3.149742 21.58189,-0.496611 7.83633,3.032311 14.16705,10.003681 16.77063,18.467781 0.73963,2.4045 0.80087,2.98352 0.81347,7.69116 0.0129,4.80952 -0.0321,5.23513 -0.81401,7.70007 -2.51631,7.932618 -7.57555,13.883948 -14.93836,17.572408 -3.61048,1.8087 -9.2554,2.95344 -13.4681,2.7312 z M 220.33532,79.848562 c -1.14474,-0.5476 -3.41767,-1.44478 -5.05095,-1.99374 -3.56758,-1.19909 -5.8237,-2.86051 -8.57002,-6.31103 -4.46967,-5.61577 -6.59254,-12.24269 -6.12744,-19.127952 0.49123,-7.272264 3.29333,-13.549093 8.22361,-18.421306 5.32077,-5.2581 11.16,-7.873567 18.40613,-8.244348 8.0648,-0.412675 15.1115,2.25949 20.83821,7.902018 4.9178,4.845513 7.89061,10.847421 8.4489,17.057771 l 0.17354,1.930499 -1.8576,0.203512 c -12.93689,1.417332 -23.71476,8.879368 -29.42429,20.371856 -1.05912,2.13186 -2.54239,6.18123 -2.54239,6.94078 0,0.76267 -0.3754,0.71673 -2.5177,-0.30806 z M 77.188695,71.988582 c -2.89217,-3.88939 -7.81251,-7.99139 -12.29932,-10.253743 -5.19475,-2.619307 -10.11194,-3.821091 -15.92001,-3.890923 l -3.84729,-0.04626 -0.19027,-1.266545 c -0.26254,-1.747573 0.0944,-5.834799 0.75312,-8.624364 2.17657,-9.217087 9.28777,-17.094827 18.15424,-20.111158 14.738,-5.013798 30.69067,2.810286 35.688206,17.503502 1.199509,3.526676 1.528049,6.059886 1.356839,10.462202 -0.21266,5.4682 -1.590699,9.836359 -4.468975,14.165909 l -1.35372,2.03629 -1.48607,-0.18518 c -2.95976,-0.36881 -9.25877,0.52312 -14.30419,2.02546 -0.48951,0.14576 -0.87283,-0.18835 -2.08256,-1.81519 z m 40.525335,-8.821821 c -2.27006,-0.355232 -5.7287,-1.313979 -7.51998,-2.084568 l -1.43933,-0.619182 0.17013,-1.332678 c 0.66247,-5.189364 0.47031,-8.970144 -0.71048,-13.978676 -1.68546,-7.14919 -6.34397,-14.36242 -12.343175,-19.112188 l -1.16364,-0.921286 1.05817,-2.144364 c 3.187846,-6.460134 9.314845,-11.858027 16.115525,-14.1978053 4.39694,-1.512766 10.41033,-1.917627 14.85288,-0.999993 7.05183,1.456595 14.01731,6.3840613 18.15602,12.8437943 1.40658,2.195392 1.41714,2.229655 0.9971,3.234947 -0.89687,2.146516 -1.36645,4.976977 -1.50477,9.07017 -0.15821,4.681658 0.12334,7.176299 1.27277,11.277273 0.87697,3.128864 0.85712,3.224579 -1.36592,6.586706 -2.77368,4.194894 -7.28299,8.052832 -11.8136,10.107109 -4.21174,1.909693 -10.69542,2.907062 -14.7617,2.270741 z m 59.61534,-0.874453 c -11.65975,-1.310516 -20.96189,-9.405367 -24.05273,-20.931013 -0.89914,-3.352873 -0.96124,-10.08676 -0.1234,-13.381818 3.00887,-11.833269 12.90238,-20.3899583 24.85022,-21.4924383 2.72603,-0.251542 6.415,-0.03461 8.83032,0.51927 8.19583,1.879465 15.54489,7.8186173 19.03618,15.3841213 l 0.97835,2.120047 -1.08856,0.911671 c -6.38797,5.349966 -11.02857,13.075397 -12.7556,21.234836 -0.53935,2.548232 -0.73188,9.095557 -0.34185,11.625471 l 0.20929,1.357525 -2.52656,0.914216 c -4.60173,1.6651 -8.74389,2.218243 -13.01566,1.738112 z" id="path36"/>
  </g>
</svg>