<svg width="1021" height="1634" xmlns="http://www.w3.org/2000/svg" xmlns:xlink="http://www.w3.org/1999/xlink" xml:space="preserve" overflow="hidden"><g transform="translate(-1879 -1079)"><g><g><g><path d="M2238.39 1294.43C2238.39 1302.6 2237.37 1309.75 2236.35 1316.89 2249.62 1323.02 2263.92 1327.1 2279.23 1327.1 2318.03 1327.1 2351.72 1303.62 2367.04 1269.93 2361.93 1256.65 2358.87 1242.36 2358.87 1227.04 2358.87 1212.75 2360.91 1199.48 2366.02 1187.23 2349.68 1155.57 2317.01 1133.11 2279.23 1133.11 2238.39 1133.11 2202.66 1158.64 2188.36 1195.39 2218.99 1217.86 2238.39 1253.59 2238.39 1294.43ZM2483.43 1324.04C2498.75 1324.04 2513.04 1319.96 2526.31 1313.83 2525.29 1307.7 2524.27 1300.56 2524.27 1293.41 2524.27 1252.57 2544.69 1215.81 2574.3 1193.35 2561.03 1156.6 2525.29 1130.05 2483.43 1130.05 2430.34 1130.05 2386.44 1173.95 2386.44 1227.04 2386.44 1281.16 2429.32 1324.04 2483.43 1324.04ZM2593.7 1374.07C2605.95 1377.13 2617.18 1381.22 2628.41 1387.34 2640.67 1333.23 2688.65 1292.39 2745.83 1290.35 2743.79 1238.28 2700.9 1196.42 2648.83 1196.42 2595.74 1196.42 2551.84 1240.32 2551.84 1293.41 2550.82 1327.1 2568.17 1356.71 2593.7 1374.07ZM2030.11 1307.7C2072.99 1307.7 2111.79 1330.17 2133.23 1363.86 2147.52 1358.75 2161.82 1355.69 2178.15 1355.69 2182.24 1355.69 2185.3 1355.69 2189.38 1356.71 2202.66 1340.38 2210.82 1318.93 2210.82 1295.45 2210.82 1242.36 2166.92 1198.46 2113.83 1198.46 2060.74 1198.46 2016.83 1242.36 2016.83 1295.45 2016.83 1300.56 2016.83 1304.64 2017.86 1308.72 2021.94 1307.7 2026.02 1307.7 2030.11 1307.7ZM2306.8 2048.95C2340.49 2048.95 2371.12 2031.59 2388.48 2005.05 2385.42 1999.94 2383.37 1993.82 2382.35 1987.69 2349.68 1977.48 2323.13 1955.02 2307.82 1925.41 2290.46 1959.1 2257.79 1984.63 2218.99 1991.77 2233.29 2025.47 2266.98 2048.95 2306.8 2048.95ZM2499.77 2048.95C2538.57 2048.95 2572.26 2025.47 2587.57 1992.79L2583.49 1992.79C2551.84 1992.79 2522.23 1980.54 2499.77 1960.12 2477.31 1980.54 2448.72 1992.79 2416.05 1992.79L2410.94 1992.79C2427.28 2025.47 2460.97 2048.95 2499.77 2048.95ZM2680.48 1871.3C2676.4 1871.3 2672.32 1872.32 2667.21 1872.32 2631.48 1872.32 2599.83 1857 2576.34 1832.5 2567.15 1847.81 2554.9 1860.06 2540.61 1870.27 2540.61 1896.82 2532.44 1921.32 2518.15 1940.72 2535.5 1957.06 2557.96 1966.25 2583.49 1966.25 2636.58 1966.25 2679.46 1923.37 2680.48 1871.3ZM2513.04 1883.55C2500.79 1887.63 2486.49 1890.69 2472.2 1890.69 2424.21 1890.69 2382.35 1863.13 2361.93 1822.29 2352.74 1841.69 2337.43 1858.02 2320.07 1869.25 2320.07 1922.35 2363.97 1966.25 2417.07 1966.25 2466.07 1966.25 2505.89 1930.51 2513.04 1883.55ZM2195.51 1966.25C2244.52 1966.25 2284.34 1930.51 2291.48 1883.55 2279.23 1887.63 2264.94 1890.69 2250.64 1890.69 2213.89 1890.69 2182.24 1875.38 2158.75 1849.85 2141.4 1863.13 2120.98 1871.3 2098.51 1874.36 2101.58 1925.41 2144.46 1966.25 2195.51 1966.25ZM2085.24 1847.81C2106.68 1847.81 2127.1 1840.67 2143.44 1828.41 2133.23 1810.04 2127.1 1789.62 2127.1 1767.15 2127.1 1763.07 2127.1 1758.99 2128.12 1753.88 2099.54 1750.82 2074.01 1738.57 2054.61 1719.17 2046.44 1721.21 2038.28 1721.21 2030.11 1721.21 2017.86 1721.21 2005.6 1719.17 1994.37 1716.1 1990.29 1726.31 1988.25 1738.57 1988.25 1749.8 1988.25 1803.91 2032.15 1847.81 2085.24 1847.81ZM2251.66 1863.13C2304.76 1863.13 2348.66 1819.22 2348.66 1766.13 2348.66 1761.03 2348.66 1756.94 2347.64 1752.86 2341.51 1753.88 2335.39 1753.88 2329.26 1753.88 2291.48 1753.88 2257.79 1736.52 2235.33 1709.98 2215.93 1733.46 2187.34 1748.78 2155.69 1752.86 2154.67 1756.94 2154.67 1762.05 2154.67 1766.13 2154.67 1820.25 2197.55 1863.13 2251.66 1863.13ZM2765.23 1747.75C2765.23 1736.52 2763.19 1725.29 2760.12 1716.1 2747.87 1720.19 2735.62 1722.23 2722.35 1722.23 2690.69 1722.23 2662.11 1709.98 2640.67 1690.58 2629.43 1709.98 2614.12 1726.31 2594.72 1737.54 2596.76 1746.73 2598.8 1756.94 2598.8 1766.13 2598.8 1779.41 2596.76 1792.68 2592.68 1804.93 2610.04 1828.41 2638.62 1843.73 2670.27 1843.73 2721.32 1844.75 2765.23 1800.85 2765.23 1747.75Z" fill="#FF3166"/><path d="M2430.34 1701.81C2417.07 1720.19 2399.71 1734.48 2378.27 1743.67 2376.23 1750.82 2375.21 1757.96 2375.21 1766.13 2375.21 1819.22 2419.11 1863.13 2472.2 1863.13 2525.29 1863.13 2569.2 1819.22 2569.2 1766.13 2569.2 1760.01 2568.17 1753.88 2567.15 1748.78 2555.92 1752.86 2542.65 1754.9 2530.4 1754.9 2489.56 1753.88 2452.8 1733.46 2430.34 1701.81ZM2035.21 1694.66C2023.98 1676.28 2016.83 1653.82 2016.83 1630.34 2016.83 1601.75 2026.02 1576.23 2042.36 1555.81 2038.28 1555.81 2034.19 1556.83 2030.11 1556.83 2003.56 1556.83 1978.04 1548.66 1958.64 1533.34 1943.32 1550.7 1933.11 1573.16 1933.11 1598.69 1933.11 1651.78 1977.02 1695.68 2030.11 1695.68 2032.15 1694.66 2033.17 1694.66 2035.21 1694.66ZM2043.38 1630.34C2043.38 1683.43 2087.28 1727.33 2140.38 1727.33 2173.05 1727.33 2201.64 1711 2218.99 1687.52 2209.8 1670.16 2204.7 1650.76 2204.7 1630.34 2204.7 1619.11 2205.72 1608.9 2208.78 1599.71 2198.57 1602.77 2188.36 1603.79 2178.15 1603.79 2138.33 1603.79 2102.6 1584.4 2080.14 1554.79 2057.67 1572.14 2043.38 1599.71 2043.38 1630.34ZM2818.32 1597.67C2818.32 1572.14 2808.11 1548.66 2791.77 1531.3 2757.97 1544.59 2719.94 1541.57 2688.65 1523.14 2682.53 1549.68 2668.23 1573.16 2648.83 1589.5 2652.92 1601.75 2655.98 1616.05 2655.98 1629.32 2655.98 1640.55 2653.94 1651.78 2650.88 1663.01 2668.23 1682.41 2693.76 1694.66 2722.35 1694.66 2774.42 1694.66 2818.32 1650.76 2818.32 1597.67ZM2450.76 1602.77C2452.8 1610.94 2453.82 1620.13 2453.82 1629.32 2453.82 1645.66 2450.76 1659.95 2445.65 1674.24 2461.99 1704.87 2494.66 1726.31 2531.42 1726.31 2584.51 1726.31 2628.41 1682.41 2628.41 1629.32 2628.41 1621.15 2627.39 1612.98 2625.35 1604.81 2607.99 1614 2588.59 1619.11 2568.17 1619.11 2530.4 1619.11 2495.68 1601.75 2473.22 1575.21 2466.07 1585.42 2458.93 1594.6 2450.76 1602.77ZM2243.5 1584.4C2236.35 1597.67 2232.27 1614 2232.27 1630.34 2232.27 1683.43 2276.17 1727.33 2329.26 1727.33 2382.35 1727.33 2426.26 1683.43 2426.26 1630.34L2426.26 1621.15C2408.9 1631.36 2387.46 1636.47 2366.02 1636.47 2320.07 1636.47 2279.23 1610.94 2257.79 1573.16 2253.71 1577.25 2248.6 1581.33 2243.5 1584.4ZM2030.11 1528.24C2041.34 1528.24 2052.57 1526.2 2062.78 1522.11 2057.67 1508.84 2054.61 1493.53 2054.61 1478.21 2054.61 1435.33 2077.07 1397.55 2109.75 1375.09 2092.39 1350.59 2062.78 1334.25 2030.11 1334.25 1977.02 1334.25 1933.11 1378.15 1933.11 1431.24 1933.11 1485.36 1977.02 1528.24 2030.11 1528.24Z" fill="#FF3166"/><path d="M2178.15 1382.24C2125.06 1382.24 2081.16 1426.14 2081.16 1479.23 2081.16 1532.32 2125.06 1576.23 2178.15 1576.23 2204.7 1576.23 2229.2 1565 2246.56 1547.64 2243.5 1536.41 2241.45 1525.18 2241.45 1512.92 2241.45 1485.36 2250.64 1459.83 2265.96 1439.41 2250.64 1404.7 2216.95 1382.24 2178.15 1382.24ZM2651.9 1405.72C2675.38 1428.18 2689.67 1458.81 2690.69 1492.51 2707.03 1504.76 2726.43 1511.9 2748.89 1511.9 2801.98 1511.9 2845.89 1468 2845.89 1414.91 2845.89 1361.82 2801.98 1317.91 2748.89 1317.91 2698.86 1317.91 2657 1356.71 2651.9 1405.72ZM2567.15 1592.56C2620.25 1592.56 2664.15 1548.66 2664.15 1495.57 2664.15 1442.48 2620.25 1398.57 2567.15 1398.57 2526.31 1398.57 2491.6 1423.08 2477.31 1458.81 2485.47 1475.15 2489.56 1493.53 2489.56 1512.92 2489.56 1525.18 2487.52 1536.41 2484.45 1547.64 2501.81 1574.18 2532.44 1592.56 2567.15 1592.56ZM2366.02 1414.91C2312.92 1414.91 2269.02 1458.81 2269.02 1511.9 2269.02 1565 2312.92 1608.9 2366.02 1608.9 2419.11 1608.9 2463.01 1565 2463.01 1511.9 2463.01 1458.81 2419.11 1414.91 2366.02 1414.91Z" fill="#FF3166"/></g></g></g><path d="M2351.5 2007.5 2351.5 2582.56" stroke="#FF3166" stroke-width="36.6667" stroke-miterlimit="8" fill="none" fill-rule="evenodd"/><path d="M2429.5 1994.5 2429.5 2582.34" stroke="#FF3166" stroke-width="36.6667" stroke-miterlimit="8" fill="none" fill-rule="evenodd"/><path d="M2420.7 2514.22C2660.35 2517.63 2840.87 2559.47 2823.91 2607.68 2806.96 2655.88 2598.94 2692.19 2359.3 2688.78 2119.65 2685.37 1939.13 2643.53 1956.08 2595.32 1971.13 2552.54 2138.1 2518.26 2350.43 2514.36" stroke="#FF3166" stroke-width="45.8333" stroke-miterlimit="8" fill="none" fill-rule="evenodd"/><path d="M2416.86 2559.19C2444.32 2565.94 2454.11 2581.17 2438.73 2593.22 2423.34 2605.27 2388.6 2609.56 2361.14 2602.81 2333.68 2596.06 2323.89 2580.83 2339.27 2568.78 2344.42 2564.75 2352.01 2561.43 2361.2 2559.18" stroke="#FF3166" stroke-width="45.8333" stroke-miterlimit="8" fill="none" fill-rule="evenodd"/></g></svg>