<svg width="6941" height="3966" xmlns="http://www.w3.org/2000/svg" xmlns:xlink="http://www.w3.org/1999/xlink" xml:space="preserve" overflow="hidden"><g transform="translate(-712 -503)"><text fill="#39489E" font-family="Amaranth,Amaranth_MSFontService,sans-serif" font-weight="400" font-size="1375" transform="matrix(1 0 0 1 2501.29 2245)">Cocktail</text><text fill="#39489E" font-family="Amaranth,Amaranth_MSFontService,sans-serif" font-weight="400" font-size="1375" transform="matrix(1 0 0 1 3188.22 3322)">Berry</text><g><g><g><path d="M3531.88 2042.44C3531.88 2055.33 3530.27 2066.61 3528.66 2077.87 3549.6 2087.55 3572.16 2093.98 3596.32 2093.98 3657.54 2093.98 3710.7 2056.94 3734.87 2003.78 3726.81 1982.82 3721.98 1960.28 3721.98 1936.1 3721.98 1913.56 3725.2 1892.62 3733.26 1873.29 3707.48 1823.33 3655.93 1787.89 3596.32 1787.89 3531.88 1787.89 3475.5 1828.18 3452.94 1886.16 3501.27 1921.62 3531.88 1978 3531.88 2042.44ZM3918.52 2089.16C3942.69 2089.16 3965.24 2082.72 3986.18 2073.05 3984.57 2063.37 3982.96 2052.11 3982.96 2040.83 3982.96 1976.39 4015.18 1918.38 4061.9 1882.95 4040.96 1824.96 3984.57 1783.07 3918.52 1783.07 3834.75 1783.07 3765.48 1852.33 3765.48 1936.1 3765.48 2021.5 3833.14 2089.16 3918.52 2089.16ZM4092.51 2168.1C4111.84 2172.93 4129.56 2179.38 4147.28 2189.04 4166.62 2103.66 4242.33 2039.22 4332.55 2036 4329.33 1953.84 4261.66 1887.79 4179.5 1887.79 4095.73 1887.79 4026.46 1957.06 4026.46 2040.83 4024.85 2093.98 4052.23 2140.71 4092.51 2168.1ZM3203.24 2063.37C3270.9 2063.37 3332.12 2098.83 3365.95 2151.99 3388.5 2143.92 3411.06 2139.1 3436.83 2139.1 3443.28 2139.1 3448.11 2139.1 3454.55 2140.71 3475.5 2114.94 3488.38 2081.09 3488.38 2044.05 3488.38 1960.28 3419.11 1891.01 3335.34 1891.01 3251.57 1891.01 3182.29 1960.28 3182.29 2044.05 3182.29 2052.11 3182.29 2058.55 3183.91 2064.98 3190.35 2063.37 3196.79 2063.37 3203.24 2063.37ZM3639.82 3232.97C3692.98 3232.97 3741.31 3205.57 3768.7 3163.7 3763.87 3155.64 3760.64 3145.98 3759.03 3136.31 3707.48 3120.2 3665.59 3084.76 3641.43 3038.04 3614.04 3091.2 3562.49 3131.48 3501.27 3142.74 3523.83 3195.92 3576.99 3232.97 3639.82 3232.97ZM3944.3 3232.97C4005.52 3232.97 4058.68 3195.92 4082.84 3144.35L4076.4 3144.35C4026.46 3144.35 3979.74 3125.02 3944.3 3092.8 3908.86 3125.02 3863.75 3144.35 3812.2 3144.35L3804.14 3144.35C3829.92 3195.92 3883.08 3232.97 3944.3 3232.97ZM4229.44 2952.66C4223 2952.66 4216.56 2954.27 4208.5 2954.27 4152.12 2954.27 4102.18 2930.1 4065.12 2891.44 4050.62 2915.59 4031.29 2934.92 4008.74 2951.03 4008.74 2992.93 3995.85 3031.58 3973.3 3062.19 4000.68 3087.98 4036.12 3102.48 4076.4 3102.48 4160.17 3102.48 4227.83 3034.82 4229.44 2952.66ZM3965.24 2971.99C3945.91 2978.43 3923.35 2983.25 3900.8 2983.25 3825.08 2983.25 3759.03 2939.77 3726.81 2875.33 3712.31 2905.94 3688.15 2931.7 3660.76 2949.42 3660.76 3033.21 3730.03 3102.48 3813.81 3102.48 3891.13 3102.48 3953.96 3046.08 3965.24 2971.99ZM3464.22 3102.48C3541.55 3102.48 3604.38 3046.08 3615.65 2971.99 3596.32 2978.43 3573.77 2983.25 3551.21 2983.25 3493.22 2983.25 3443.28 2959.1 3406.22 2918.81 3378.84 2939.77 3346.62 2952.66 3311.17 2957.49 3316.01 3038.04 3383.67 3102.48 3464.22 3102.48ZM3290.23 2915.59C3324.06 2915.59 3356.28 2904.33 3382.06 2884.98 3365.95 2856 3356.28 2823.78 3356.28 2788.32 3356.28 2781.89 3356.28 2775.45 3357.89 2767.39 3312.79 2762.56 3272.51 2743.23 3241.9 2712.62 3229.01 2715.84 3216.13 2715.84 3203.24 2715.84 3183.91 2715.84 3164.57 2712.62 3146.85 2707.77 3140.41 2723.88 3137.19 2743.23 3137.19 2760.95 3137.19 2846.33 3206.46 2915.59 3290.23 2915.59ZM3552.82 2939.77C3636.6 2939.77 3705.87 2870.48 3705.87 2786.71 3705.87 2778.67 3705.87 2772.21 3704.26 2765.78 3694.59 2767.39 3684.93 2767.39 3675.26 2767.39 3615.65 2767.39 3562.49 2739.99 3527.05 2698.12 3496.44 2735.17 3451.33 2759.34 3401.39 2765.78 3399.78 2772.21 3399.78 2780.28 3399.78 2786.71 3399.78 2872.11 3467.44 2939.77 3552.82 2939.77ZM4363.16 2757.71C4363.16 2739.99 4359.94 2722.27 4355.1 2707.77 4335.77 2714.23 4316.44 2717.45 4295.5 2717.45 4245.55 2717.45 4200.45 2698.12 4166.62 2667.51 4148.89 2698.12 4124.73 2723.88 4094.12 2741.6 4097.34 2756.1 4100.56 2772.21 4100.56 2786.71 4100.56 2807.67 4097.34 2828.61 4090.9 2847.94 4118.29 2884.98 4163.39 2909.16 4213.33 2909.16 4293.88 2910.77 4363.16 2841.5 4363.16 2757.71Z" fill="#FF3166" transform="matrix(1 0 0 1.0003 -2252.81 -635.024)"/><path d="M3834.75 2685.23C3813.81 2714.23 3786.42 2736.78 3752.59 2751.28 3749.37 2762.56 3747.76 2773.82 3747.76 2786.71 3747.76 2870.48 3817.03 2939.77 3900.8 2939.77 3984.57 2939.77 4053.85 2870.48 4053.85 2786.71 4053.85 2777.06 4052.23 2767.39 4050.62 2759.34 4032.9 2765.78 4011.96 2769 3992.63 2769 3928.19 2767.39 3870.19 2735.17 3834.75 2685.23ZM3211.29 2673.94C3193.57 2644.94 3182.29 2609.5 3182.29 2572.46 3182.29 2527.35 3196.79 2487.08 3222.57 2454.86 3216.13 2454.86 3209.68 2456.47 3203.24 2456.47 3161.35 2456.47 3121.08 2443.58 3090.47 2419.4 3066.3 2446.8 3050.19 2482.23 3050.19 2522.52 3050.19 2606.29 3119.47 2675.55 3203.24 2675.55 3206.46 2673.94 3208.07 2673.94 3211.29 2673.94ZM3224.18 2572.46C3224.18 2656.23 3293.45 2725.49 3377.23 2725.49 3428.78 2725.49 3473.89 2699.73 3501.27 2662.68 3486.77 2635.29 3478.72 2604.68 3478.72 2572.46 3478.72 2554.74 3480.33 2538.63 3485.16 2524.13 3469.05 2528.95 3452.94 2530.56 3436.83 2530.56 3374 2530.56 3317.62 2499.97 3282.18 2453.25 3246.73 2480.62 3224.18 2524.13 3224.18 2572.46ZM4446.93 2520.91C4446.93 2480.62 4430.82 2443.58 4405.04 2416.18 4351.7 2437.15 4291.7 2432.39 4242.33 2403.31 4232.67 2445.19 4210.11 2482.23 4179.5 2508.02 4185.95 2527.35 4190.78 2549.91 4190.78 2570.85 4190.78 2588.57 4187.56 2606.29 4182.73 2624.01 4210.11 2654.62 4250.39 2673.94 4295.5 2673.94 4377.66 2673.94 4446.93 2604.68 4446.93 2520.91ZM3866.97 2528.95C3870.19 2541.85 3871.8 2556.35 3871.8 2570.85 3871.8 2596.63 3866.97 2619.18 3858.91 2641.72 3884.69 2690.05 3936.24 2723.88 3994.24 2723.88 4078.01 2723.88 4147.28 2654.62 4147.28 2570.85 4147.28 2557.96 4145.67 2545.06 4142.45 2532.17 4115.06 2546.67 4084.45 2554.74 4052.23 2554.74 3992.63 2554.74 3937.85 2527.35 3902.41 2485.47 3891.13 2501.58 3879.86 2516.06 3866.97 2528.95ZM3539.94 2499.97C3528.66 2520.91 3522.22 2546.67 3522.22 2572.46 3522.22 2656.23 3591.49 2725.49 3675.26 2725.49 3759.03 2725.49 3828.31 2656.23 3828.31 2572.46L3828.31 2557.96C3800.92 2574.07 3767.09 2582.13 3733.26 2582.13 3660.76 2582.13 3596.32 2541.85 3562.49 2482.23 3556.05 2488.69 3547.99 2495.13 3539.94 2499.97ZM3203.24 2411.36C3220.96 2411.36 3238.68 2408.14 3254.79 2401.68 3246.73 2380.75 3241.9 2356.59 3241.9 2332.42 3241.9 2264.76 3277.34 2205.15 3328.9 2169.71 3301.51 2131.05 3254.79 2105.27 3203.24 2105.27 3119.47 2105.27 3050.19 2174.53 3050.19 2258.3 3050.19 2343.7 3119.47 2411.36 3203.24 2411.36Z" fill="#FF3166" transform="matrix(1 0 0 1.0003 -2252.81 -635.024)"/><path d="M3436.83 2180.99C3353.06 2180.99 3283.79 2250.26 3283.79 2334.03 3283.79 2417.79 3353.06 2487.08 3436.83 2487.08 3478.72 2487.08 3517.38 2469.36 3544.77 2441.97 3539.94 2424.25 3536.71 2406.53 3536.71 2387.18 3536.71 2343.7 3551.21 2303.41 3575.38 2271.19 3551.21 2216.43 3498.05 2180.99 3436.83 2180.99ZM4184.34 2218.04C4221.39 2253.48 4243.94 2301.81 4245.55 2354.98 4271.33 2374.31 4301.94 2385.57 4337.38 2385.57 4421.15 2385.57 4490.43 2316.31 4490.43 2232.54 4490.43 2148.77 4421.15 2079.48 4337.38 2079.48 4258.44 2079.48 4192.39 2140.71 4184.34 2218.04ZM4050.62 2512.84C4134.4 2512.84 4203.67 2443.58 4203.67 2359.81 4203.67 2276.04 4134.4 2206.75 4050.62 2206.75 3986.18 2206.75 3931.41 2245.43 3908.86 2301.81 3921.74 2327.59 3928.19 2356.59 3928.19 2387.18 3928.19 2406.53 3924.97 2424.25 3920.13 2441.97 3947.52 2483.84 3995.85 2512.84 4050.62 2512.84ZM3733.26 2232.54C3649.48 2232.54 3580.21 2301.81 3580.21 2385.57 3580.21 2469.36 3649.48 2538.63 3733.26 2538.63 3817.03 2538.63 3886.3 2469.36 3886.3 2385.57 3886.3 2301.81 3817.03 2232.54 3733.26 2232.54Z" fill="#FF3166" transform="matrix(1 0 0 1.0003 -2252.81 -635.024)"/><path d="M3710.35 3167.56 3710.35 4074.93" stroke="#FF3166" stroke-width="57.8551" stroke-miterlimit="8" fill="none" fill-rule="evenodd" transform="matrix(1 0 0 1.0003 -2252.81 -635.024)"/><path d="M3833.42 3147.05 3833.42 4074.58" stroke="#FF3166" stroke-width="57.8551" stroke-miterlimit="8" fill="none" fill-rule="evenodd" transform="matrix(1 0 0 1.0003 -2252.81 -635.024)"/><path d="M3819.54 3967.1C4197.67 3972.48 4482.51 4038.5 4455.75 4114.57 4429 4190.62 4100.78 4247.91 3722.66 4242.53 3344.52 4237.15 3059.69 4171.13 3086.43 4095.06 3110.18 4027.56 3373.63 3973.47 3708.66 3967.32" stroke="#FF3166" stroke-width="72.3188" stroke-miterlimit="8" fill="none" fill-rule="evenodd" transform="matrix(1 0 0 1.0003 -2252.81 -635.024)"/><path d="M3813.48 4038.06C3856.81 4048.71 3872.25 4072.74 3847.99 4091.75 3823.7 4110.76 3768.89 4117.53 3725.56 4106.88 3682.23 4096.23 3666.78 4072.2 3691.05 4053.19 3699.18 4046.83 3711.15 4041.59 3725.65 4038.04" stroke="#FF3166" stroke-width="72.3188" stroke-miterlimit="8" fill="none" fill-rule="evenodd" transform="matrix(1 0 0 1.0003 -2252.81 -635.024)"/></g></g></g></g></svg>