<svg width="2256" height="453" xmlns="http://www.w3.org/2000/svg" xmlns:xlink="http://www.w3.org/1999/xlink" xml:space="preserve" overflow="hidden"><defs><clipPath id="clip0"><rect x="19" y="378" width="2256" height="453"/></clipPath></defs><g clip-path="url(#clip0)" transform="translate(-19 -378)"><path d="M96.5162 57.8549C96.5162 60.0484 96.242 61.9678 95.9678 63.8872 99.5323 65.5323 103.371 66.6291 107.484 66.6291 117.903 66.6291 126.952 60.3226 131.065 51.2742 129.694 47.7097 128.871 43.871 128.871 39.7581 128.871 35.9194 129.419 32.3549 130.79 29.0645 126.403 20.5645 117.629 14.5323 107.484 14.5323 96.5162 14.5323 86.9194 21.3871 83.0807 31.2581 91.3065 37.2904 96.5162 46.8871 96.5162 57.8549ZM162.323 65.8065C166.436 65.8065 170.274 64.7097 173.839 63.0646 173.565 61.4194 173.29 59.5001 173.29 57.5807 173.29 46.6129 178.774 36.742 186.726 30.7097 183.161 20.8387 173.565 13.7097 162.323 13.7097 148.065 13.7097 136.274 25.5 136.274 39.7581 136.274 54.2904 147.79 65.8065 162.323 65.8065ZM191.936 79.242C195.226 80.0646 198.242 81.1614 201.258 82.8065 204.549 68.2743 217.436 57.3065 232.791 56.7581 232.242 42.7742 220.726 31.5323 206.742 31.5323 192.484 31.5323 180.694 43.3226 180.694 57.5807 180.42 66.6291 185.081 74.5807 191.936 79.242ZM40.5807 61.4194C52.0968 61.4194 62.5162 67.4517 68.2743 76.5001 72.113 75.1291 75.9517 74.3065 80.3388 74.3065 81.4356 74.3065 82.2581 74.3065 83.3549 74.5807 86.9194 70.1936 89.113 64.4355 89.113 58.1291 89.113 43.871 77.3227 32.0807 63.0646 32.0807 48.8065 32.0807 37.0162 43.871 37.0162 58.1291 37.0162 59.5001 37.0162 60.5968 37.2904 61.6936 38.3871 61.4194 39.4839 61.4194 40.5807 61.4194ZM114.887 260.484C123.936 260.484 132.161 255.823 136.823 248.694 136 247.323 135.452 245.678 135.178 244.033 126.403 241.291 119.274 235.258 115.161 227.307 110.5 236.355 101.726 243.21 91.3065 245.129 95.1452 254.178 104.194 260.484 114.887 260.484ZM166.71 260.484C177.129 260.484 186.178 254.178 190.29 245.403L189.194 245.403C180.694 245.403 172.742 242.113 166.71 236.629 160.678 242.113 153 245.403 144.226 245.403L142.855 245.403C147.242 254.178 156.29 260.484 166.71 260.484ZM215.242 212.774C214.145 212.774 213.049 213.049 211.678 213.049 202.081 213.049 193.581 208.936 187.274 202.355 184.807 206.468 181.516 209.758 177.678 212.5 177.678 219.629 175.484 226.21 171.645 231.42 176.307 235.807 182.339 238.274 189.194 238.274 203.452 238.274 214.968 226.758 215.242 212.774ZM170.274 216.065C166.984 217.161 163.145 217.984 159.307 217.984 146.419 217.984 135.178 210.581 129.694 199.613 127.226 204.823 123.113 209.21 118.452 212.226 118.452 226.484 130.242 238.274 144.5 238.274 157.661 238.274 168.355 228.678 170.274 216.065ZM85.0001 238.274C98.1614 238.274 108.855 228.678 110.774 216.065 107.484 217.161 103.645 217.984 99.8065 217.984 89.9356 217.984 81.4356 213.871 75.1291 207.016 70.4678 210.581 64.9839 212.774 58.9517 213.597 59.7743 227.307 71.2904 238.274 85.0001 238.274ZM55.3871 206.468C61.1452 206.468 66.6291 204.549 71.0162 201.258 68.2743 196.323 66.6291 190.839 66.6291 184.807 66.6291 183.71 66.6291 182.613 66.9033 181.242 59.2259 180.42 52.371 177.129 47.1613 171.92 44.9678 172.468 42.7742 172.468 40.5807 172.468 37.2904 172.468 34 171.92 30.9839 171.097 29.8871 173.839 29.3387 177.129 29.3387 180.145 29.3387 194.678 41.1291 206.468 55.3871 206.468ZM100.081 210.581C114.339 210.581 126.129 198.791 126.129 184.532 126.129 183.161 126.129 182.065 125.855 180.968 124.21 181.242 122.565 181.242 120.919 181.242 110.774 181.242 101.726 176.581 95.6936 169.452 90.484 175.758 82.8065 179.871 74.3065 180.968 74.0323 182.065 74.0323 183.436 74.0323 184.532 74.0323 199.065 85.5485 210.581 100.081 210.581ZM238 179.597C238 176.581 237.452 173.565 236.629 171.097 233.339 172.194 230.049 172.742 226.484 172.742 217.984 172.742 210.307 169.452 204.549 164.242 201.532 169.452 197.42 173.839 192.21 176.855 192.758 179.323 193.307 182.065 193.307 184.532 193.307 188.097 192.758 191.661 191.661 194.952 196.323 201.258 204 205.371 212.5 205.371 226.21 205.645 238 193.855 238 179.597Z" fill="#FF3166" transform="matrix(1 0 0 1.00211 19 376.58)"/><path d="M148.065 167.258C144.5 172.194 139.839 176.032 134.081 178.5 133.532 180.42 133.258 182.339 133.258 184.532 133.258 198.791 145.049 210.581 159.307 210.581 173.565 210.581 185.355 198.791 185.355 184.532 185.355 182.887 185.081 181.242 184.807 179.871 181.79 180.968 178.226 181.516 174.936 181.516 163.968 181.242 154.097 175.758 148.065 167.258ZM41.9517 165.339C38.9355 160.403 37.0162 154.371 37.0162 148.065 37.0162 140.387 39.4839 133.532 43.871 128.049 42.7742 128.049 41.6775 128.323 40.5807 128.323 33.4516 128.323 26.5968 126.129 21.3871 122.016 17.2742 126.678 14.5323 132.71 14.5323 139.565 14.5323 153.823 26.3226 165.613 40.5807 165.613 41.1291 165.339 41.4033 165.339 41.9517 165.339ZM44.1452 148.065C44.1452 162.323 55.9355 174.113 70.1936 174.113 78.9678 174.113 86.6452 169.726 91.3065 163.42 88.8388 158.758 87.4678 153.549 87.4678 148.065 87.4678 145.049 87.742 142.307 88.5646 139.839 85.8227 140.661 83.0807 140.936 80.3388 140.936 69.6452 140.936 60.0484 135.726 54.0162 127.774 47.9839 132.436 44.1452 139.839 44.1452 148.065ZM252.258 139.29C252.258 132.436 249.516 126.129 245.129 121.468 236.052 125.035 225.838 124.226 217.436 119.274 215.791 126.403 211.952 132.71 206.742 137.097 207.839 140.387 208.661 144.226 208.661 147.79 208.661 150.807 208.113 153.823 207.291 156.839 211.952 162.049 218.807 165.339 226.484 165.339 240.468 165.339 252.258 153.549 252.258 139.29ZM153.549 140.661C154.097 142.855 154.371 145.323 154.371 147.79 154.371 152.178 153.549 156.016 152.178 159.855 156.565 168.081 165.339 173.839 175.21 173.839 189.468 173.839 201.258 162.049 201.258 147.79 201.258 145.597 200.984 143.403 200.436 141.21 195.774 143.678 190.565 145.049 185.081 145.049 174.936 145.049 165.613 140.387 159.581 133.258 157.661 136 155.742 138.468 153.549 140.661ZM97.8872 135.726C95.9678 139.29 94.8711 143.678 94.8711 148.065 94.8711 162.323 106.661 174.113 120.919 174.113 135.178 174.113 146.968 162.323 146.968 148.065L146.968 145.597C142.307 148.339 136.549 149.71 130.79 149.71 118.452 149.71 107.484 142.855 101.726 132.71 100.629 133.807 99.2582 134.903 97.8872 135.726ZM40.5807 120.645C43.5968 120.645 46.6129 120.097 49.3549 119 47.9839 115.436 47.1613 111.323 47.1613 107.21 47.1613 95.6936 53.1936 85.5485 61.9678 79.5162 57.3065 72.9356 49.3549 68.5485 40.5807 68.5485 26.3226 68.5485 14.5323 80.3388 14.5323 94.5969 14.5323 109.129 26.3226 120.645 40.5807 120.645Z" fill="#FF3166" transform="matrix(1 0 0 1.00211 19 376.58)"/><path d="M80.3388 81.4356C66.0807 81.4356 54.2904 93.2259 54.2904 107.484 54.2904 121.742 66.0807 133.532 80.3388 133.532 87.4678 133.532 94.0485 130.516 98.7098 125.855 97.8872 122.839 97.3388 119.823 97.3388 116.532 97.3388 109.129 99.8065 102.274 103.919 96.7904 99.8065 87.4678 90.7582 81.4356 80.3388 81.4356ZM207.565 87.742C213.871 93.7743 217.71 102 217.984 111.049 222.371 114.339 227.581 116.258 233.613 116.258 247.871 116.258 259.662 104.468 259.662 90.2098 259.662 75.9517 247.871 64.1614 233.613 64.1614 220.178 64.1614 208.936 74.5807 207.565 87.742ZM184.807 137.919C199.065 137.919 210.855 126.129 210.855 111.871 210.855 97.613 199.065 85.8227 184.807 85.8227 173.839 85.8227 164.516 92.4033 160.678 102 162.871 106.387 163.968 111.323 163.968 116.532 163.968 119.823 163.42 122.839 162.597 125.855 167.258 132.984 175.484 137.919 184.807 137.919ZM130.79 90.2098C116.532 90.2098 104.742 102 104.742 116.258 104.742 130.516 116.532 142.307 130.79 142.307 145.049 142.307 156.839 130.516 156.839 116.258 156.839 102 145.049 90.2098 130.79 90.2098Z" fill="#FF3166" transform="matrix(1 0 0 1.00211 19 376.58)"/><path d="M132.941 648.274 132.941 803.187" stroke="#FF3166" stroke-width="9.87745" stroke-miterlimit="8" fill="none" fill-rule="evenodd" transform="matrix(1.00084 0 0 1 12.799 -21.5705)"/><path d="M153.953 644.772 153.954 803.127" stroke="#FF3166" stroke-width="9.87745" stroke-miterlimit="8" fill="none" fill-rule="evenodd" transform="matrix(1.00084 0 0 1 12.799 -21.5705)"/><path d="M151.584 784.777C215.842 785.701 264.231 796.975 259.663 809.959 255.095 822.946 199.3 832.725 135.042 831.801 70.7835 830.877 22.3949 819.603 26.9627 806.619 31.0143 795.1 75.7542 785.871 132.653 784.817" stroke="#FF3166" stroke-width="12.3468" stroke-miterlimit="8" fill="none" fill-rule="evenodd" transform="matrix(1.00084 0 0 1 12.799 -21.5705)"/><path d="M150.667 796.635C157.985 798.464 160.564 802.572 156.428 805.81 152.292 809.048 143.006 810.191 135.689 808.359 128.371 806.53 125.792 802.422 129.928 799.184 131.292 798.114 133.29 797.233 135.705 796.63" stroke="#FF3166" stroke-width="12.3468" stroke-miterlimit="8" fill="none" fill-rule="evenodd" transform="matrix(1.00084 0 0 1 12.799 -21.5705)"/><text fill="#39489E" font-family="Amaranth,Amaranth_MSFontService,sans-serif" font-weight="400" font-size="1215" transform="matrix(0.26961 0 0 0.269385 408.517 697)">CocktailBerry</text><text fill="#39489E" font-family="Amaranth,Amaranth_MSFontService,sans-serif" font-weight="400" font-size="266" transform="matrix(0.26961 0 0 0.269385 430.296 795)">Free Open</text><text fill="#39489E" font-family="Amaranth,Amaranth_MSFontService,sans-serif" font-weight="400" font-size="266" transform="matrix(0.26961 0 0 0.269385 726.25 795)">-</text><text fill="#39489E" font-family="Amaranth,Amaranth_MSFontService,sans-serif" font-weight="400" font-size="266" transform="matrix(0.26961 0 0 0.269385 752.51 795)">Source Software for Cocktail Machines</text></g></svg>