<svg width="8541" height="2553" xmlns="http://www.w3.org/2000/svg" xmlns:xlink="http://www.w3.org/1999/xlink" xml:space="preserve" overflow="hidden"><g transform="translate(-23 -1127)"><g><g><g><path d="M359.04 215.22C359.04 223.38 358.02 230.52 357 237.66 370.26 243.78 384.54 247.86 399.84 247.86 438.6 247.86 472.26 224.4 487.56 190.74 482.46 177.48 479.4 163.2 479.4 147.9 479.4 133.62 481.44 120.36 486.54 108.12 470.22 76.5 437.58 54.06 399.84 54.06 359.04 54.06 323.34 79.56 309.06 116.28 339.66 138.72 359.04 174.42 359.04 215.22ZM603.84 244.8C619.14 244.8 633.42 240.72 646.68 234.6 645.66 228.48 644.64 221.34 644.64 214.2 644.64 173.4 665.04 136.68 694.62 114.24 681.36 77.52 645.66 51 603.84 51 550.8 51 506.94 94.86 506.94 147.9 506.94 201.96 549.78 244.8 603.84 244.8ZM714 294.78C726.24 297.84 737.46 301.92 748.68 308.04 760.92 253.98 808.86 213.18 865.98 211.14 863.94 159.12 821.1 117.3 769.08 117.3 716.04 117.3 672.18 161.16 672.18 214.2 671.16 247.86 688.5 277.44 714 294.78ZM150.96 228.48C193.8 228.48 232.56 250.92 253.98 284.58 268.26 279.48 282.54 276.42 298.86 276.42 302.94 276.42 306 276.42 310.08 277.44 323.34 261.12 331.5 239.7 331.5 216.24 331.5 163.2 287.64 119.34 234.6 119.34 181.56 119.34 137.7 163.2 137.7 216.24 137.7 221.34 137.7 225.42 138.72 229.5 142.8 228.48 146.88 228.48 150.96 228.48ZM427.38 969C461.04 969 491.64 951.66 508.98 925.14 505.92 920.04 503.88 913.92 502.86 907.8 470.22 897.6 443.7 875.16 428.4 845.58 411.06 879.24 378.42 904.74 339.66 911.88 353.94 945.54 387.6 969 427.38 969ZM620.16 969C658.92 969 692.58 945.54 707.88 912.9L703.8 912.9C672.18 912.9 642.6 900.66 620.16 880.26 597.72 900.66 569.16 912.9 536.52 912.9L531.42 912.9C547.74 945.54 581.4 969 620.16 969ZM800.7 791.52C796.62 791.52 792.54 792.54 787.44 792.54 751.74 792.54 720.12 777.24 696.66 752.76 687.48 768.06 675.24 780.3 660.96 790.5 660.96 817.02 652.8 841.5 638.52 860.88 655.86 877.2 678.3 886.38 703.8 886.38 756.84 886.38 799.68 843.54 800.7 791.52ZM633.42 803.76C621.18 807.84 606.9 810.9 592.62 810.9 544.68 810.9 502.86 783.36 482.46 742.56 473.28 761.94 457.98 778.26 440.64 789.48 440.64 842.52 484.5 886.38 537.54 886.38 586.5 886.38 626.28 850.68 633.42 803.76ZM316.2 886.38C365.16 886.38 404.94 850.68 412.08 803.76 399.84 807.84 385.56 810.9 371.28 810.9 334.56 810.9 302.94 795.6 279.48 770.1 262.14 783.36 241.74 791.52 219.3 794.58 222.36 845.58 265.2 886.38 316.2 886.38ZM206.04 768.06C227.46 768.06 247.86 760.92 264.18 748.68 253.98 730.32 247.86 709.92 247.86 687.48 247.86 683.4 247.86 679.32 248.88 674.22 220.32 671.16 194.82 658.92 175.44 639.54 167.28 641.58 159.12 641.58 150.96 641.58 138.72 641.58 126.48 639.54 115.26 636.48 111.18 646.68 109.14 658.92 109.14 670.14 109.14 724.2 153 768.06 206.04 768.06ZM372.3 783.36C425.34 783.36 469.2 739.5 469.2 686.46 469.2 681.36 469.2 677.28 468.18 673.2 462.06 674.22 455.94 674.22 449.82 674.22 412.08 674.22 378.42 656.88 355.98 630.36 336.6 653.82 308.04 669.12 276.42 673.2 275.4 677.28 275.4 682.38 275.4 686.46 275.4 740.52 318.24 783.36 372.3 783.36ZM885.36 668.1C885.36 656.88 883.32 645.66 880.26 636.48 868.02 640.56 855.78 642.6 842.52 642.6 810.9 642.6 782.34 630.36 760.92 610.98 749.7 630.36 734.4 646.68 715.02 657.9 717.06 667.08 719.1 677.28 719.1 686.46 719.1 699.72 717.06 712.98 712.98 725.22 730.32 748.68 758.88 763.98 790.5 763.98 841.5 765 885.36 721.14 885.36 668.1Z" fill="#FF3166" transform="matrix(1.00098 0 0 1 23 1478)"/><path d="M550.8 622.2C537.54 640.56 520.2 654.84 498.78 664.02 496.74 671.16 495.72 678.3 495.72 686.46 495.72 739.5 539.58 783.36 592.62 783.36 645.66 783.36 689.52 739.5 689.52 686.46 689.52 680.34 688.5 674.22 687.48 669.12 676.26 673.2 663 675.24 650.76 675.24 609.96 674.22 573.24 653.82 550.8 622.2ZM156.06 615.06C144.84 596.7 137.7 574.26 137.7 550.8 137.7 522.24 146.88 496.74 163.2 476.34 159.12 476.34 155.04 477.36 150.96 477.36 124.44 477.36 98.94 469.2 79.56 453.9 64.26 471.24 54.06 493.68 54.06 519.18 54.06 572.22 97.92 616.08 150.96 616.08 153 615.06 154.02 615.06 156.06 615.06ZM164.22 550.8C164.22 603.84 208.08 647.7 261.12 647.7 293.76 647.7 322.32 631.38 339.66 607.92 330.48 590.58 325.38 571.2 325.38 550.8 325.38 539.58 326.4 529.38 329.46 520.2 319.26 523.26 309.06 524.28 298.86 524.28 259.08 524.28 223.38 504.9 200.94 475.32 178.5 492.66 164.22 520.2 164.22 550.8ZM938.4 518.16C938.4 492.66 928.2 469.2 911.88 451.86 878.113 465.13 840.117 462.12 808.86 443.7 802.74 470.22 788.46 493.68 769.08 510 773.16 522.24 776.22 536.52 776.22 549.78 776.22 561 774.18 572.22 771.12 583.44 788.46 602.82 813.96 615.06 842.52 615.06 894.54 615.06 938.4 571.2 938.4 518.16ZM571.2 523.26C573.24 531.42 574.26 540.6 574.26 549.78 574.26 566.1 571.2 580.38 566.1 594.66 582.42 625.26 615.06 646.68 651.78 646.68 704.82 646.68 748.68 602.82 748.68 549.78 748.68 541.62 747.66 533.46 745.62 525.3 728.28 534.48 708.9 539.58 688.5 539.58 650.76 539.58 616.08 522.24 593.64 495.72 586.5 505.92 579.36 515.1 571.2 523.26ZM364.14 504.9C357 518.16 352.92 534.48 352.92 550.8 352.92 603.84 396.78 647.7 449.82 647.7 502.86 647.7 546.72 603.84 546.72 550.8L546.72 541.62C529.38 551.82 507.96 556.92 486.54 556.92 440.64 556.92 399.84 531.42 378.42 493.68 374.34 497.76 369.24 501.84 364.14 504.9ZM150.96 448.8C162.18 448.8 173.4 446.76 183.6 442.68 178.5 429.42 175.44 414.12 175.44 398.82 175.44 355.98 197.88 318.24 230.52 295.8 213.18 271.32 183.6 255 150.96 255 97.92 255 54.06 298.86 54.06 351.9 54.06 405.96 97.92 448.8 150.96 448.8Z" fill="#FF3166" transform="matrix(1.00098 0 0 1 23 1478)"/><path d="M298.86 302.94C245.82 302.94 201.96 346.8 201.96 399.84 201.96 452.88 245.82 496.74 298.86 496.74 325.38 496.74 349.86 485.52 367.2 468.18 364.14 456.96 362.1 445.74 362.1 433.5 362.1 405.96 371.28 380.46 386.58 360.06 371.28 325.38 337.62 302.94 298.86 302.94ZM772.14 326.4C795.6 348.84 809.88 379.44 810.9 413.1 827.22 425.34 846.6 432.48 869.04 432.48 922.08 432.48 965.94 388.62 965.94 335.58 965.94 282.54 922.08 238.68 869.04 238.68 819.06 238.68 777.24 277.44 772.14 326.4ZM687.48 513.06C740.52 513.06 784.38 469.2 784.38 416.16 784.38 363.12 740.52 319.26 687.48 319.26 646.68 319.26 612 343.74 597.72 379.44 605.88 395.76 609.96 414.12 609.96 433.5 609.96 445.74 607.92 456.96 604.86 468.18 622.2 494.7 652.8 513.06 687.48 513.06ZM486.54 335.58C433.5 335.58 389.64 379.44 389.64 432.48 389.64 485.52 433.5 529.38 486.54 529.38 539.58 529.38 583.44 485.52 583.44 432.48 583.44 379.44 539.58 335.58 486.54 335.58Z" fill="#FF3166" transform="matrix(1.00098 0 0 1 23 1478)"/></g></g></g><path d="M495.5 2406.5 495.5 2981.56" stroke="#FF3166" stroke-width="36.6667" stroke-miterlimit="8" fill="none" fill-rule="evenodd"/><path d="M573.5 2393.5 573.5 2981.34" stroke="#FF3166" stroke-width="36.6667" stroke-miterlimit="8" fill="none" fill-rule="evenodd"/><path d="M564.703 2913.22C804.348 2916.63 984.872 2958.47 967.915 3006.68 950.958 3054.88 742.941 3091.19 503.296 3087.78 263.652 3084.37 83.1276 3042.53 100.085 2994.32 115.133 2951.54 282.105 2917.26 494.426 2913.36" stroke="#FF3166" stroke-width="45.8333" stroke-miterlimit="8" fill="none" fill-rule="evenodd"/><path d="M561.302 2957.24C588.467 2964.03 598.041 2979.28 582.686 2991.3 567.331 3003.32 532.862 3007.56 505.698 3000.76 478.533 2993.97 468.959 2978.72 484.314 2966.7 489.378 2962.73 496.793 2959.46 505.759 2957.22" stroke="#FF3166" stroke-width="45.8333" stroke-miterlimit="8" fill="none" fill-rule="evenodd"/><text fill="#39489E" font-family="Amaranth,Amaranth_MSFontService,sans-serif" font-weight="400" font-size="1215" transform="matrix(1 0 0 1 1473.34 2666)">CocktailBerry</text><text fill="#39489E" font-family="Amaranth,Amaranth_MSFontService,sans-serif" font-weight="400" font-size="266" transform="matrix(1 0 0 1 1554.44 3030)">Free Open</text><text fill="#39489E" font-family="Amaranth,Amaranth_MSFontService,sans-serif" font-weight="400" font-size="266" transform="matrix(1 0 0 1 2652.15 3030)">-</text><text fill="#39489E" font-family="Amaranth,Amaranth_MSFontService,sans-serif" font-weight="400" font-size="266" transform="matrix(1 0 0 1 2749.54 3030)">Source Software for Cocktail Machines</text></g></svg>