<svg width="7103" height="4145" xmlns="http://www.w3.org/2000/svg" xmlns:xlink="http://www.w3.org/1999/xlink" xml:space="preserve" overflow="hidden"><g transform="translate(-550 -395)"><text fill="#39489E" font-family="Amaranth,Amaranth_MSFontService,sans-serif" font-weight="400" font-size="1375" transform="matrix(1 0 0 1 2501.29 2137)">Cocktail</text><text fill="#39489E" font-family="Amaranth,Amaranth_MSFontService,sans-serif" font-weight="400" font-size="1375" transform="matrix(1 0 0 1 3188.22 3214)">Berry</text><g><g><g><path d="M3531.56 2042.25C3531.56 2055.14 3529.95 2066.42 3528.34 2077.69 3549.28 2087.36 3571.84 2093.8 3595.99 2093.8 3657.21 2093.8 3710.36 2056.75 3734.53 2003.6 3726.47 1982.65 3721.64 1960.1 3721.64 1935.93 3721.64 1913.38 3724.86 1892.45 3732.92 1873.12 3707.14 1823.17 3655.6 1787.73 3595.99 1787.73 3531.56 1787.73 3475.19 1828.01 3452.63 1885.99 3500.95 1921.45 3531.56 1977.82 3531.56 2042.25ZM3918.17 2088.97C3942.34 2088.97 3964.88 2082.53 3985.82 2072.86 3984.21 2063.19 3982.6 2051.92 3982.6 2040.64 3982.6 1976.21 4014.82 1918.21 4061.53 1882.78 4040.6 1824.79 3984.21 1782.91 3918.17 1782.91 3834.4 1782.91 3765.14 1852.17 3765.14 1935.93 3765.14 2021.32 3832.79 2088.97 3918.17 2088.97ZM4092.14 2167.9C4111.47 2172.73 4129.19 2179.18 4146.9 2188.84 4166.25 2103.47 4241.95 2039.03 4332.16 2035.82 4328.94 1953.66 4261.27 1887.62 4179.12 1887.62 4095.36 1887.62 4026.1 1956.88 4026.1 2040.64 4024.49 2093.8 4051.86 2140.51 4092.14 2167.9ZM3202.95 2063.19C3270.6 2063.19 3331.82 2098.64 3365.65 2151.79 3388.19 2143.73 3410.75 2138.9 3436.52 2138.9 3442.97 2138.9 3447.8 2138.9 3454.24 2140.51 3475.19 2114.75 3488.06 2080.91 3488.06 2043.86 3488.06 1960.1 3418.8 1890.84 3335.04 1890.84 3251.28 1890.84 3182 1960.1 3182 2043.86 3182 2051.92 3182 2058.36 3183.62 2064.8 3190.06 2063.19 3196.5 2063.19 3202.95 2063.19ZM3639.49 3232.68C3692.65 3232.68 3740.97 3205.29 3768.36 3163.41 3763.53 3155.35 3760.3 3145.7 3758.69 3136.02 3707.14 3119.92 3665.26 3084.48 3641.1 3037.76 3613.71 3090.92 3562.17 3131.2 3500.95 3142.46 3523.51 3195.63 3576.67 3232.68 3639.49 3232.68ZM3943.95 3232.68C4005.16 3232.68 4058.31 3195.63 4082.47 3144.07L4076.03 3144.07C4026.1 3144.07 3979.38 3124.74 3943.95 3092.53 3908.51 3124.74 3863.4 3144.07 3811.86 3144.07L3803.8 3144.07C3829.58 3195.63 3882.73 3232.68 3943.95 3232.68ZM4229.06 2952.39C4222.62 2952.39 4216.18 2954 4208.12 2954 4151.75 2954 4101.81 2929.83 4064.75 2891.18 4050.25 2915.33 4030.93 2934.66 4008.38 2950.77 4008.38 2992.66 3995.49 3031.31 3972.94 3061.92 4000.32 3087.7 4035.75 3102.2 4076.03 3102.2 4159.79 3102.2 4227.45 3034.55 4229.06 2952.39ZM3964.88 2971.72C3945.55 2978.16 3922.99 2982.99 3900.45 2982.99 3824.73 2982.99 3758.69 2939.5 3726.47 2875.07 3711.97 2905.68 3687.82 2931.44 3660.43 2949.16 3660.43 3032.94 3729.69 3102.2 3813.47 3102.2 3890.78 3102.2 3953.6 3045.81 3964.88 2971.72ZM3463.91 3102.2C3541.23 3102.2 3604.06 3045.81 3615.32 2971.72 3595.99 2978.16 3573.45 2982.99 3550.89 2982.99 3492.91 2982.99 3442.97 2958.83 3405.91 2918.55 3378.54 2939.5 3346.32 2952.39 3310.87 2957.22 3315.71 3037.76 3383.36 3102.2 3463.91 3102.2ZM3289.93 2915.33C3323.76 2915.33 3355.98 2904.07 3381.76 2884.73 3365.65 2855.74 3355.98 2823.53 3355.98 2788.07 3355.98 2781.64 3355.98 2775.2 3357.58 2767.14 3312.49 2762.31 3272.21 2742.98 3241.61 2712.37 3228.72 2715.59 3215.84 2715.59 3202.95 2715.59 3183.62 2715.59 3164.28 2712.37 3146.56 2707.53 3140.13 2723.64 3136.91 2742.98 3136.91 2760.7 3136.91 2846.07 3206.17 2915.33 3289.93 2915.33ZM3552.5 2939.5C3636.27 2939.5 3705.54 2870.23 3705.54 2786.46 3705.54 2778.42 3705.54 2771.97 3703.93 2765.53 3694.25 2767.14 3684.6 2767.14 3674.93 2767.14 3615.32 2767.14 3562.17 2739.75 3526.73 2697.88 3496.12 2734.92 3451.02 2759.09 3401.08 2765.53 3399.47 2771.97 3399.47 2780.03 3399.47 2786.46 3399.47 2871.85 3467.13 2939.5 3552.5 2939.5ZM4362.77 2757.47C4362.77 2739.75 4359.55 2722.03 4354.71 2707.53 4335.38 2713.98 4316.05 2717.2 4295.12 2717.2 4245.16 2717.2 4200.07 2697.88 4166.25 2667.27 4148.51 2697.88 4124.36 2723.64 4093.75 2741.36 4096.97 2755.86 4100.19 2771.97 4100.19 2786.46 4100.19 2807.42 4096.97 2828.35 4090.53 2847.68 4117.92 2884.73 4163.01 2908.9 4212.95 2908.9 4293.49 2910.5 4362.77 2841.24 4362.77 2757.47Z" fill="#FF3166" transform="matrix(1.00009 0 0 1 -2252.81 -742.363)"/><path d="M3834.4 2684.99C3813.47 2713.98 3786.08 2736.53 3752.25 2751.03 3749.03 2762.31 3747.42 2773.57 3747.42 2786.46 3747.42 2870.23 3816.69 2939.5 3900.45 2939.5 3984.21 2939.5 4053.49 2870.23 4053.49 2786.46 4053.49 2776.81 4051.86 2767.14 4050.25 2759.09 4032.53 2765.53 4011.6 2768.75 3992.27 2768.75 3927.84 2767.14 3869.84 2734.92 3834.4 2684.99ZM3211 2673.7C3193.28 2644.71 3182 2609.27 3182 2572.23 3182 2527.12 3196.5 2486.85 3222.28 2454.64 3215.84 2454.64 3209.39 2456.25 3202.95 2456.25 3161.06 2456.25 3120.8 2443.36 3090.19 2419.19 3066.02 2446.58 3049.91 2482.01 3049.91 2522.29 3049.91 2606.05 3119.19 2675.31 3202.95 2675.31 3206.17 2673.7 3207.78 2673.7 3211 2673.7ZM3223.89 2572.23C3223.89 2655.99 3293.15 2725.25 3376.93 2725.25 3428.47 2725.25 3473.58 2699.48 3500.95 2662.44 3486.45 2635.05 3478.41 2604.44 3478.41 2572.23 3478.41 2554.51 3480.02 2538.4 3484.84 2523.9 3468.74 2528.73 3452.63 2530.34 3436.52 2530.34 3373.69 2530.34 3317.32 2499.74 3281.89 2453.03 3246.43 2480.4 3223.89 2523.9 3223.89 2572.23ZM4446.53 2520.68C4446.53 2480.4 4430.42 2443.36 4404.64 2415.97 4351.31 2436.94 4291.31 2432.17 4241.95 2403.09 4232.29 2444.97 4209.73 2482.01 4179.12 2507.79 4185.57 2527.12 4190.4 2549.68 4190.4 2570.62 4190.4 2588.33 4187.18 2606.05 4182.35 2623.77 4209.73 2654.38 4250.01 2673.7 4295.12 2673.7 4377.27 2673.7 4446.53 2604.44 4446.53 2520.68ZM3866.62 2528.73C3869.84 2541.62 3871.45 2556.12 3871.45 2570.62 3871.45 2596.4 3866.62 2618.94 3858.56 2641.49 3884.34 2689.81 3935.88 2723.64 3993.88 2723.64 4077.64 2723.64 4146.9 2654.38 4146.9 2570.62 4146.9 2557.73 4145.29 2544.84 4142.08 2531.95 4114.69 2546.45 4084.08 2554.51 4051.86 2554.51 3992.27 2554.51 3937.49 2527.12 3902.06 2485.25 3890.78 2501.35 3879.51 2515.84 3866.62 2528.73ZM3539.62 2499.74C3528.34 2520.68 3521.9 2546.45 3521.9 2572.23 3521.9 2655.99 3591.17 2725.25 3674.93 2725.25 3758.69 2725.25 3827.97 2655.99 3827.97 2572.23L3827.97 2557.73C3800.58 2573.83 3766.75 2581.9 3732.92 2581.9 3660.43 2581.9 3595.99 2541.62 3562.17 2482.01 3555.73 2488.46 3547.67 2494.9 3539.62 2499.74ZM3202.95 2411.14C3220.67 2411.14 3238.39 2407.92 3254.5 2401.47 3246.43 2380.53 3241.61 2356.38 3241.61 2332.21 3241.61 2264.55 3277.04 2204.95 3328.6 2169.51 3301.21 2130.86 3254.5 2105.08 3202.95 2105.08 3119.19 2105.08 3049.91 2174.34 3049.91 2258.1 3049.91 2343.49 3119.19 2411.14 3202.95 2411.14Z" fill="#FF3166" transform="matrix(1.00009 0 0 1 -2252.81 -742.363)"/><path d="M3436.52 2180.79C3352.76 2180.79 3283.49 2250.05 3283.49 2333.82 3283.49 2417.58 3352.76 2486.85 3436.52 2486.85 3478.41 2486.85 3517.06 2469.14 3544.45 2441.75 3539.62 2424.03 3536.39 2406.31 3536.39 2386.97 3536.39 2343.49 3550.89 2303.21 3575.06 2270.99 3550.89 2216.23 3497.73 2180.79 3436.52 2180.79ZM4183.96 2217.84C4221.01 2253.27 4243.55 2301.6 4245.16 2354.77 4270.94 2374.09 4301.55 2385.36 4336.99 2385.36 4420.75 2385.36 4490.03 2316.1 4490.03 2232.34 4490.03 2148.57 4420.75 2079.3 4336.99 2079.3 4258.05 2079.3 4192.01 2140.51 4183.96 2217.84ZM4050.25 2512.62C4134.03 2512.62 4203.29 2443.36 4203.29 2359.6 4203.29 2275.83 4134.03 2206.56 4050.25 2206.56 3985.82 2206.56 3931.06 2245.23 3908.51 2301.6 3921.38 2327.38 3927.84 2356.38 3927.84 2386.97 3927.84 2406.31 3924.62 2424.03 3919.77 2441.75 3947.16 2483.62 3995.49 2512.62 4050.25 2512.62ZM3732.92 2232.34C3649.15 2232.34 3579.89 2301.6 3579.89 2385.36 3579.89 2469.14 3649.15 2538.4 3732.92 2538.4 3816.69 2538.4 3885.95 2469.14 3885.95 2385.36 3885.95 2301.6 3816.69 2232.34 3732.92 2232.34Z" fill="#FF3166" transform="matrix(1.00009 0 0 1 -2252.81 -742.363)"/><path d="M3710.02 3167.28 3710.02 4074.57" stroke="#FF3166" stroke-width="57.8499" stroke-miterlimit="8" fill="none" fill-rule="evenodd" transform="matrix(1.00009 0 0 1 -2252.81 -742.363)"/><path d="M3833.08 3146.77 3833.08 4074.22" stroke="#FF3166" stroke-width="57.8499" stroke-miterlimit="8" fill="none" fill-rule="evenodd" transform="matrix(1.00009 0 0 1 -2252.81 -742.363)"/><path d="M3819.19 3966.74C4197.3 3972.12 4482.11 4038.14 4455.35 4114.2 4428.61 4190.24 4100.41 4247.53 3722.32 4242.15 3344.22 4236.77 3059.41 4170.76 3086.15 4094.7 3109.9 4027.2 3373.33 3973.12 3708.33 3966.96" stroke="#FF3166" stroke-width="72.3123" stroke-miterlimit="8" fill="none" fill-rule="evenodd" transform="matrix(1.00009 0 0 1 -2252.81 -742.363)"/><path d="M3813.14 4037.69C3856.46 4048.34 3871.91 4072.37 3847.64 4091.38 3823.36 4110.4 3768.55 4117.16 3725.23 4106.51 3681.9 4095.86 3666.46 4071.84 3690.72 4052.82 3698.85 4046.47 3710.82 4041.23 3725.32 4037.68" stroke="#FF3166" stroke-width="72.3123" stroke-miterlimit="8" fill="none" fill-rule="evenodd" transform="matrix(1.00009 0 0 1 -2252.81 -742.363)"/></g></g></g><text fill="#39489E" font-family="Amaranth,Amaranth_MSFontService,sans-serif" font-weight="400" font-size="458" transform="matrix(1 0 0 1 825.805 4158)">Software </text><text fill="#39489E" font-family="Amaranth,Amaranth_MSFontService,sans-serif" font-weight="400" font-size="458" transform="matrix(1 0 0 1 2683.2 4158)">for Cocktail Machines</text></g></svg>